<?xml version="1.0" encoding="UTF-8"?>
<svg width="381px" height="295px" viewBox="0 0 381 295" version="1.1" xmlns="http://www.w3.org/2000/svg" xmlns:xlink="http://www.w3.org/1999/xlink">
    <!-- Generator: Sketch 52.5 (67469) - http://www.bohemiancoding.com/sketch -->
    <title>clickndig</title>
    <desc>Created with Sketch.</desc>
    <g id="Page-1" stroke="none" stroke-width="1" fill="none" fill-rule="evenodd">
        <g id="My-work" transform="translate(-220.000000, -459.000000)" fill-rule="nonzero">
            <g id="Group-7" transform="translate(220.000000, 459.000000)">
                <g id="clickndig">
                    <path d="M89.5693052,1.95291326 C155.133201,-17.6001646 386.15775,114.025794 379.911137,202.263953 C373.664524,290.502112 60.5439543,310.761912 16.422245,283.249494 C-27.6994642,255.737076 24.0054093,21.5059912 89.5693052,1.95291326 Z" id="Rectangle" fill="#6D91AD"></path>
                    <g id="Group-2" transform="translate(238.965504, 173.213465) rotate(-32.000000) translate(-238.965504, -173.213465) translate(196.465504, 92.213465)">
                        <path d="M42.5,3 C20.6847524,3 3,20.6847524 3,42.5 L3,138 C3,149.59798 12.4020203,159 24,159 L61,159 C72.5979797,159 82,149.59798 82,138 L82,42.5 C82,20.6847524 64.3152476,3 42.5,3 Z" id="Rectangle" stroke="#333333" stroke-width="6" fill="#FFFFFF"></path>
                        <path d="M80.2708309,48.1868579 C80.2671987,48.1847726 80.2635628,48.182686 80.2599232,48.1805981 C80.2651934,48.1836213 80.2696169,48.18616 80.2732346,48.1882373 Z M80.2732346,48.1882373 C80.3904509,48.2555454 79.6616857,47.8385874 79.4795887,47.7328071 C76.5043989,46.0045174 74.9595859,44.39377 74.2676097,41.3922125 C70.4403823,24.7909998 57.7150758,11.7648957 43.0265767,11.4997645 C28.2851532,11.7609915 15.5597662,24.7859302 11.7323903,41.3877866 C11.0404141,44.3893441 9.49560112,46.0000916 6.5204113,47.7283812 C6.34160469,47.8322501 5.63570739,48.2361527 5.72123175,48.1869904 C3.20844485,49.6305286 2.5,50.4568264 2.5,52.4955741 L2.5,137.995574 C2.5,150.421981 12.5735931,160.495574 25,160.495574 L25.0003688,160.495574 L43,160.5 L61,160.5 C73.4264069,160.5 83.5,150.426407 83.5,138 L83.5,52.5 C83.5,50.4591072 82.7900636,49.633217 80.2708309,48.1868579 Z M5.73509686,48.1790293 C5.73666416,48.17813 5.73832365,48.1771779 5.74007684,48.1761722 C5.73854801,48.1770492 5.73701984,48.177926 5.73549234,48.1788025 Z" id="Combined-Shape" stroke="#333333" stroke-width="3" fill="#333333"></path>
                        <path d="M12.939896,51.2181973 C12.9411637,51.2175838 12.9425081,51.2169333 12.9439305,51.2162451 C12.9426877,51.2168464 12.9414456,51.2174475 12.9402041,51.2180483 Z M12.9302789,51.2228541 C11.1027639,52.1081329 10.6603693,52.5432229 10.6603693,53.581518 L10.6603693,110.102722 C10.6603693,112.398676 10.4856889,118.818472 10.5064083,119.871651 C10.5478933,121.980354 10.8029759,122.949341 11.333902,123.437905 C11.9340261,123.990146 13.2289089,124.308255 15.8243497,124.430803 C17.0525962,124.488797 18.5232372,124.505918 20.8436631,124.498218 C20.6660505,124.498807 26.1102111,124.468323 27.9716923,124.468323 L56.0283077,124.468323 C57.8897889,124.468323 63.3339495,124.498807 63.1563369,124.498218 C65.4767628,124.505918 66.9474038,124.488797 68.1756503,124.430803 C70.7710911,124.308255 72.0659739,123.990146 72.666098,123.437905 C73.1970241,122.949341 73.4521067,121.980354 73.4935917,119.871651 C73.5143111,118.818472 73.3396307,112.398676 73.3396307,110.102722 L73.3396307,53.581518 C73.3396307,52.5422189 72.8963801,52.107292 71.0644155,51.2202846 C71.1609523,51.2670336 70.5870525,50.9901001 70.4433099,50.9196755 C68.0139864,49.7294633 66.722924,48.5940971 66.1262657,46.4112746 C65.9111518,45.6242991 65.7187101,44.8444511 65.5077544,43.9250567 C65.4170491,43.5297413 65.0953823,42.0882355 65.0202512,41.7615546 C64.1351492,37.9129995 63.3580866,36.5829092 61.013239,35.5064838 C57.9872089,34.1173549 52.345515,33.5 41.9198154,33.5 L41.9207228,33.5000481 C31.5748386,33.5063064 25.9714624,34.1271457 22.9657239,35.5161733 C20.6372457,36.5922219 19.8627357,37.9221963 18.9797488,41.7615546 C18.9046177,42.0882355 18.5829509,43.5297413 18.4922456,43.9250567 C18.2812899,44.8444511 18.0888482,45.6242991 17.8737343,46.4112746 C17.277076,48.5940971 15.9860136,49.7294633 13.5566901,50.9196755 C13.414969,50.9891097 12.8551042,51.2592854 12.9302789,51.2228541 Z M71.0644155,51.2202846 C71.0616367,51.2189391 71.0588547,51.2175926 71.0560695,51.2162451 C71.0600058,51.2181496 71.0633447,51.2197656 71.0661136,51.2211065 Z" id="Path" stroke="#333333" stroke-width="3" fill="#FFFFFF"></path>
                        <g id="Group" transform="translate(18.000000, 69.000000)" fill="#333333" stroke="#333333" stroke-width="3">
                            <path d="M8,1.5 C4.41014913,1.5 1.5,4.41014913 1.5,8 L1.5,14 C1.5,14.2761424 1.72385763,14.5 2,14.5 L15,14.5 C18.5898509,14.5 21.5,11.5898509 21.5,8 L21.5,2 C21.5,1.72385763 21.2761424,1.5 21,1.5 L8,1.5 Z" id="Rectangle"></path>
                            <path d="M34,1.5 C30.4101491,1.5 27.5,4.41014913 27.5,8 L27.5,14 C27.5,14.2761424 27.7238576,14.5 28,14.5 L41,14.5 C44.5898509,14.5 47.5,11.5898509 47.5,8 L47.5,2 C47.5,1.72385763 47.2761424,1.5 47,1.5 L34,1.5 Z" id="Rectangle" transform="translate(37.500000, 8.000000) scale(-1, 1) translate(-37.500000, -8.000000) "></path>
                        </g>
                        <ellipse id="Oval" stroke="#333333" stroke-width="3" fill="#6D91AD" cx="43" cy="151" rx="23" ry="4"></ellipse>
                        <circle id="Oval" fill="#FFFFFF" cx="43" cy="19" r="3"></circle>
                    </g>
                    <g id="signal" transform="translate(189.997827, 81.931848) rotate(-22.000000) translate(-189.997827, -81.931848) translate(169.497827, 57.931848)" stroke="#333333" stroke-linecap="round" stroke-width="6">
                        <path d="M12.42849,44.3311972 C14.1427757,40.9700985 16.3332519,38.4561765 18.9999186,36.7894311 C21.6665852,35.1226857 24.8094424,34.303117 28.42849,34.330725" id="line-1" transform="translate(20.428490, 39.330624) rotate(-330.000000) translate(-20.428490, -39.330624) "></path>
                        <path d="M8.39259161,36.9292734 C10.9640202,31.5517468 14.2497345,27.5296445 18.2497345,24.8629666 C22.2497345,22.1962887 26.9640202,20.8850352 32.3925916,20.929206" id="line-2" transform="translate(20.392592, 28.928700) rotate(-330.000000) translate(-20.392592, -28.928700) "></path>
                        <path d="M3.22271863,29.0273497 C6.86557577,21.6333951 11.5203377,16.1031126 17.1870043,12.4365021 C22.853671,8.76989168 29.5322424,6.96695331 37.2227186,7.027687" id="line-3" transform="translate(20.222719, 18.026776) rotate(-330.000000) translate(-20.222719, -18.026776) "></path>
                    </g>
                    <g id="Group" transform="translate(106.118200, 115.487531) rotate(19.000000) translate(-106.118200, -115.487531) translate(48.118200, 43.987531)">
                        <path d="M57.71114,3.00065722 C38.0205464,3.44310774 22.2285187,31.2166462 17.1340207,71.868128 C16.9185214,73.5877017 16.5807172,75.3488124 16.1256965,77.1678685 C14.9157375,82.0049736 13.1869569,86.4610018 9.94610887,93.721899 C5.75568715,103.110251 5.15701046,104.528707 4.11241854,108.006078 C2.7936085,112.396302 2.64383844,115.652151 3.68198268,118.143309 C7.42382615,127.122332 18.8778484,132.044561 34.9072844,132.044561 C39.256509,132.044561 42.0857048,133.209455 47.0269192,136.259063 C47.1936574,136.362011 47.1936574,136.362011 47.359169,136.464247 C51.9222619,139.2824 54.0843544,140.13315 57.5743964,139.974275 C61.0054315,139.818086 63.2651097,138.92263 67.5599872,136.423199 C67.7842074,136.292632 67.7842074,136.292632 68.0101659,136.160979 C68.2370674,136.028867 68.3307372,135.974405 68.4660038,135.896007 C73.1855585,133.160661 76.1824773,132.039643 80.5143601,132.039643 C96.5437961,132.039643 107.997818,127.117414 111.739662,118.138391 C112.777806,115.647233 112.628036,112.391384 111.309226,108.00116 C110.264634,104.523789 109.665957,103.105333 105.475536,93.7169809 C102.234688,86.4560837 100.505907,82.0000555 99.295948,77.1629504 C98.8409273,75.3438943 98.5031231,73.5827837 98.2876238,71.8632099 C93.1930551,31.2111646 77.4010189,3.43892455 57.71114,3.00065722 Z" id="Path" stroke="#333333" stroke-width="6" fill="#FFFFFF"></path>
                        <path d="M58,22.0536526 C65.1797017,22.0536526 71,20.2627916 71,18.0536526 C71,15.8445136 65.1797017,10 58,10 C50.8202983,10 45,15.8445136 45,18.0536526 C45,20.2627916 50.8202983,22.0536526 58,22.0536526 Z" id="Oval" stroke="#333333" stroke-width="3" fill="#6D91AD"></path>
                        <circle id="Oval" fill="#333333" cx="58" cy="129" r="3"></circle>
                        <circle id="Oval" fill="#333333" cx="58" cy="53" r="4"></circle>
                    </g>
                </g>
            </g>
        </g>
    </g>
</svg>