<?xml version="1.0" encoding="UTF-8"?>
<svg width="877px" height="220px" viewBox="0 0 877 220" version="1.1" xmlns="http://www.w3.org/2000/svg" xmlns:xlink="http://www.w3.org/1999/xlink">
    <!-- Generator: Sketch 52.5 (67469) - http://www.bohemiancoding.com/sketch -->
    <title>Group 9</title>
    <desc>Created with Sketch.</desc>
    <g id="Page-1" stroke="none" stroke-width="1" fill="none" fill-rule="evenodd">
        <g id="My-work" transform="translate(-291.000000, -2347.000000)" fill-rule="nonzero">
            <g id="Group-9" transform="translate(276.000000, 2346.000000)">
                <path d="M7.50947775,54 L883.868328,54 C885.525182,54 886.868328,55.3431458 886.868328,57 C886.868328,57.2572717 886.835234,57.5134747 886.769861,57.7623021 L857.556494,168.956483 C857.21447,170.258321 856.04723,171.172997 854.701374,171.193822 L28.3217528,183.980517 C26.8387501,184.003464 25.5615629,182.939254 25.3165543,181.476451 L4.55069315,57.4955741 C4.27699514,55.8614825 5.37981205,54.3149134 7.01390366,54.0412154 C7.17766975,54.0137858 7.34343044,54 7.50947775,54 Z" id="Rectangle" fill="#2B9AFF" transform="translate(445.500000, 119.000000) rotate(7.000000) translate(-445.500000, -119.000000) "></path>
                <g id="Group-8" transform="translate(774.455043, 81.274745) rotate(10.000000) translate(-774.455043, -81.274745) translate(660.955043, 19.774745)">
                    <path d="M196.670864,25.393483 C185.901311,25.393483 177.170864,34.1239304 177.170864,44.893483 C177.170864,55.6630356 185.901311,64.393483 196.670864,64.393483 L203.670864,64.393483 C214.440416,64.393483 223.170864,55.6630356 223.170864,44.893483 C223.170864,34.1239304 214.440416,25.393483 203.670864,25.393483 L196.670864,25.393483 Z M195.502985,32.6889375 L200.678743,32.6889375 C207.607406,32.6889375 213.224197,38.3057289 213.224197,45.2343921 C213.224197,52.1630553 207.607406,57.7798466 200.678743,57.7798466 L195.502985,57.7798466 C188.574322,57.7798466 182.95753,52.1630553 182.95753,45.2343921 C182.95753,38.3057289 188.574322,32.6889375 195.502985,32.6889375 Z" id="Combined-Shape" stroke="#333333" stroke-width="6" fill="#FFFFFF"></path>
                    <path d="M0.452404538,22.7873241 C0.452404538,10.2251862 45.0000719,0.0415613934 99.9524045,0.0415613934 C154.904737,0.0415613934 199.452405,10.2251862 199.452405,22.7873241 C199.452405,77.6039257 175.385929,122.041561 99.9524045,122.041561 C24.5188799,122.041561 0.452404538,77.6039257 0.452404538,22.7873241 Z" id="Path" stroke="#333333" stroke-width="6" fill="#FFFFFF"></path>
                    <ellipse id="Oval" stroke="#333333" stroke-width="3" fill="#333333" cx="100.334252" cy="22.8957334" rx="99.5" ry="22.5"></ellipse>
                    <path d="M108.297269,6.70586492 C108.294454,7.19481392 108.293047,7.28360675 108.293047,6.9722434 C108.293047,3.80223909 106.320051,-5.90103388 105.69127,-9.74262239 C104.609896,-16.3493658 103.580817,-20.2340142 102.88465,-27.9868418 C102.374326,-33.6700281 102.374326,-43.3744359 102.88465,-48.9869747 C103.394973,-54.5995134 104.69747,-58.840372 105.904404,-55.9826544 C106.709026,-54.0775093 107.57007,-49.4137228 108.487535,-41.991295 C108.422705,-24.6134474 108.374083,-11.8442288 108.341669,-3.68363903 C108.374083,-11.8442288 108.422705,-24.6134474 108.487535,-41.991295 C109.178549,-49.4137228 109.926367,-54.0775093 110.73099,-55.9826544 C111.937924,-58.840372 113.24042,-54.5995134 113.750744,-48.9869747 C114.261067,-43.3744359 114.261067,-33.6700281 113.750744,-27.9868418 C113.054576,-20.2340142 112.025498,-16.3493658 110.944124,-9.74262239 C110.332055,-6.00313804 108.399562,3.29058052 108.297268,6.70586725 L108.297269,6.70586492 Z M107.643869,27.4608911 C109.038296,11.1001733 110.553043,0.589055047 112.188109,-4.07246371 C114.654344,-11.1036164 115.492928,-32.6832615 115.492928,-38.5138851 C115.492928,-44.3445088 118.085316,-21.6150357 116.157139,3.77262229 C114.228963,29.1602803 109.731129,25.9371405 108.890434,35.7749598 C108.32997,42.3335061 107.9067,45.8792616 107.620623,46.4122265 L107.620623,46.1128827 C107.335132,45.4228367 106.920437,41.895466 106.376539,35.5307705 C105.535844,25.6929512 101.03801,28.916091 99.109833,3.52843299 C97.1816565,-21.859225 99.7740441,-44.5886981 99.7740441,-38.7580744 C99.7740441,-32.9274508 100.612629,-11.3478057 103.078863,-4.31665301 C104.72205,0.368016219 106.243718,10.9605309 107.643869,27.4608911 Z M107.6481,72.2658773 C109.610627,49.0991009 111.742492,34.2153575 114.043696,27.6146469 C117.514693,17.6585347 118.694923,-12.8982427 118.694923,-21.1544058 C118.694923,-29.4105689 122.343469,2.77436495 119.629739,38.7232887 C116.916009,74.6722124 110.585724,70.1082465 109.402523,84.0385986 C108.613723,93.3255001 108.018009,98.3462899 107.615383,99.1009682 L107.615383,98.6770973 C107.21358,97.6999923 106.629935,92.7052354 105.864449,83.6928266 C104.681248,69.7624744 98.3509636,74.3264403 95.6372336,38.3775166 C92.9235036,2.42859289 96.5720491,-29.756341 96.5720491,-21.5001779 C96.5720491,-13.2440148 97.7522795,17.3127627 101.223276,27.2688748 C103.535909,33.9023665 105.677517,48.9013673 107.6481,72.2658773 Z" id="Shape" fill="#FFFFFF" transform="translate(107.633486, 21.100968) rotate(-90.000000) translate(-107.633486, -21.100968) "></path>
                </g>
            </g>
        </g>
    </g>
</svg>