<?xml version="1.0" encoding="UTF-8"?>
<svg width="381px" height="295px" viewBox="0 0 381 295" version="1.1" xmlns="http://www.w3.org/2000/svg" xmlns:xlink="http://www.w3.org/1999/xlink">
    <!-- Generator: Sketch 52.5 (67469) - http://www.bohemiancoding.com/sketch -->
    <title>Whova</title>
    <desc>Created with Sketch.</desc>
    <g id="Page-1" stroke="none" stroke-width="1" fill="none" fill-rule="evenodd">
        <g id="My-work" transform="translate(-819.000000, -815.000000)">
            <g id="Group-6" transform="translate(242.000000, 815.000000)">
                <g id="Whova" transform="translate(577.000000, 0.000000)">
                    <path d="M89.5693052,1.95291326 C155.133201,-17.6001646 386.15775,114.025794 379.911137,202.263953 C373.664524,290.502112 60.5439543,310.761912 16.422245,283.249494 C-27.6994642,255.737076 24.0054093,21.5059912 89.5693052,1.95291326 Z" id="Rectangle" fill="#2DACEE" fill-rule="nonzero"></path>
                    <path d="M265.750371,189.909943 C263.987754,190.459513 262.299423,190.734295 260.685336,190.734295 C259.182274,190.734295 257.83928,190.51339 256.656314,190.071576 C255.473348,189.629761 254.471321,189.033989 253.650204,188.284243 C252.829086,187.534497 252.188902,186.691045 251.729633,185.753862 C251.270364,184.816679 251.026816,183.839346 250.998982,182.821833 C250.191781,184.428432 249.273257,186.075172 248.243381,187.762101 C247.213505,189.44903 246.148851,190.975276 245.049389,192.340886 C243.949927,193.706495 242.850481,194.824403 241.751018,195.694645 C240.651556,196.564886 239.614737,197 238.64053,197 C237.026129,197 235.773596,196.60505 234.882892,195.815139 C233.992188,195.025228 233.331129,194.027812 232.899695,192.822863 C232.46826,191.617914 232.189919,190.305877 232.064664,188.886715 C231.939409,187.467552 231.835031,186.115351 231.751527,184.830072 L231.668024,183.544799 C231.584521,181.53655 231.501019,179.7894 231.417515,178.303296 C231.334012,176.817191 231.257468,175.471685 231.187882,174.266735 C231.143324,173.495179 231.107326,172.762056 231.079888,172.067356 C230.892254,171.914162 230.703191,171.761502 230.5127,171.609375 C229.156155,170.526036 227.819386,169.503651 226.502352,168.542188 C225.185318,167.580724 224.052686,166.775003 223.104421,166.125 L222.788335,166.571875 C223.552215,168.142716 224.125116,169.801554 224.507056,171.548438 C224.888995,173.295321 225.079962,174.9677 225.079962,176.565625 C225.079962,178.16355 224.908751,179.774992 224.566322,181.4 C224.223893,183.025008 223.730013,184.595826 223.084666,186.1125 C222.439319,187.629174 221.649111,189.051035 220.714017,190.378125 C219.778923,191.705215 218.712141,192.856245 217.513641,193.83125 C216.31514,194.806255 215.004711,195.578122 213.582314,196.146875 C212.159918,196.715628 210.645351,197 209.03857,197 C206.72059,197 204.738484,196.478651 203.092192,195.435937 C201.480895,194.415389 200.153485,193.090015 199.109926,191.459776 C198.627463,191.811011 198.116996,192.17381 197.57852,192.548177 C196.651319,193.192798 195.64802,193.844268 194.568592,194.502604 C193.489164,195.160941 192.402833,195.743834 191.309567,196.251302 C190.2163,196.75877 189.12305,197.177082 188.029783,197.50625 C186.936517,197.835418 185.891702,198 184.895307,198 C183.373037,198 182.05145,197.595403 180.930505,196.786198 C179.809561,195.976992 178.889294,194.948357 178.169675,193.70026 C177.450057,192.452164 176.910351,191.087507 176.550542,189.60625 C176.190732,188.124993 176.01083,186.726048 176.01083,185.409375 C176.01083,184.531593 176.128459,183.55096 176.363718,182.467448 C176.598978,181.383936 176.889589,180.293582 177.23556,179.196354 C177.58153,178.099126 177.969011,177.029345 178.398014,175.986979 C178.827018,174.944613 179.228337,174.011983 179.601986,173.189063 C179.975634,172.366142 180.300841,171.6941 180.577617,171.172917 C180.854394,170.651734 181.034296,170.35 181.117329,170.267708 L180.245487,170.144271 C179.774968,170.446008 178.979247,171.214056 177.858303,172.448438 C176.737359,173.682819 175.471126,175.239487 174.059567,177.11849 C172.648007,178.997492 171.188034,181.109624 169.679603,183.454948 C168.171172,185.800272 166.808069,188.220994 165.590253,190.717188 C164.981345,191.951569 164.483155,193.028207 164.095668,193.947135 C163.708181,194.866064 163.327619,195.620396 162.953971,196.210156 C162.580323,196.799916 162.172084,197.245658 161.729242,197.547396 C161.2864,197.849133 160.719017,198 160.027076,198 C159.113714,198 158.394106,197.739412 157.868231,197.218229 C157.342356,196.697046 156.941036,196.004431 156.66426,195.140365 C156.387484,194.276298 156.207582,193.295665 156.124549,192.198438 C156.064918,191.41046 156.0267,190.608344 156.009894,189.792076 C155.924474,189.847016 155.838955,189.901172 155.753339,189.954545 C153.609666,191.290916 151.595735,191.959091 149.711487,191.959091 C148.810325,191.959091 147.963791,191.815911 147.171861,191.529545 C146.379931,191.24318 145.676762,190.800003 145.062333,190.2 C144.447904,189.599997 143.935888,188.822732 143.526269,187.868182 C143.11665,186.913632 142.829921,185.781825 142.666073,184.472727 C141.300676,187.009104 139.832896,189.293172 138.262689,191.325 C136.692483,193.356828 135.026723,195.088629 133.265361,196.520455 C131.503998,197.95228 129.66074,199.056814 127.73553,199.834091 C125.81032,200.611368 123.823697,201 121.775601,201 C119.181346,201 116.976263,200.318189 115.160285,198.954545 C113.344307,197.590902 111.8697,195.736375 110.73642,193.390909 C109.603141,191.045443 108.777088,188.290925 108.258237,185.127273 C107.739386,181.963621 107.479964,178.595472 107.479964,175.022727 C107.479964,173.71363 107.548233,172.486369 107.684773,171.340909 C107.821313,170.195449 107.930543,169.172732 108.012467,168.272727 C107.029381,174.49094 105.793715,179.693161 104.305432,183.879545 C102.817149,188.06593 101.069467,191.42726 99.062333,193.963636 C97.0551992,196.500013 94.7613664,198.306813 92.1807658,199.384091 C89.6001652,200.461369 86.7397011,201 83.5992876,201 C81.7969634,201 80.0765888,200.406824 78.4381122,199.220455 C76.7996356,198.034085 75.3591632,196.268194 74.1166518,193.922727 C72.8741404,191.577261 71.8774154,188.638654 71.126447,185.106818 C70.3754786,181.574982 70,177.450024 70,172.731818 C70,169.840895 70.1638452,166.875015 70.4915405,163.834091 C70.8192358,160.793167 71.2902908,157.74547 71.9047195,154.690909 C72.5191482,151.636348 73.2769323,148.609106 74.1780944,145.609091 C75.0792565,142.609076 76.103289,139.690923 77.2502226,136.854545 C77.9329212,135.272719 78.6156095,134.038641 79.2983081,133.152273 C79.9810067,132.265905 80.6773488,131.611366 81.3873553,131.188636 C82.0973618,130.765907 82.8141846,130.513637 83.5378451,130.431818 C84.2615055,130.35 84.9919821,130.309091 85.7292965,130.309091 C86.3300713,130.309091 86.8762219,130.35 87.3677649,130.431818 C87.8593079,130.513637 88.2757478,130.68409 88.6170971,130.943182 C88.9584463,131.202274 89.2178679,131.570452 89.3953695,132.047727 C89.5728712,132.525002 89.6616207,133.172723 89.6616207,133.990909 C89.6616207,134.918186 89.4363335,136.288627 88.9857524,138.102273 C88.5351714,139.915918 87.9685401,142.009079 87.2858415,144.381818 C86.6031429,146.754557 85.8658395,149.331804 85.0739092,152.113636 C84.2819788,154.895468 83.5446754,157.718167 82.8619768,160.581818 C82.1792783,163.445469 81.612647,166.26135 81.1620659,169.029545 C80.7114848,171.797741 80.4861977,174.36817 80.4861977,176.740909 C80.4861977,178.677282 80.6159085,180.484083 80.8753339,182.161364 C81.1347594,183.838645 81.5375455,185.297721 82.0837044,186.538636 C82.6298632,187.779552 83.3125516,188.754542 84.1317898,189.463636 C84.9510281,190.172731 85.9204456,190.527273 87.0400712,190.527273 C88.1596969,190.527273 89.2451714,190.200003 90.2965272,189.545455 C91.347883,188.890906 92.3650886,187.990915 93.3481745,186.845455 C94.3312605,185.699994 95.2733704,184.336372 96.1745325,182.754545 C97.0756946,181.172719 97.9427088,179.461373 98.7756011,177.620455 C99.6084933,175.779536 100.393585,173.843192 101.130899,171.811364 C101.868214,169.779535 102.564556,167.727283 103.219947,165.654545 C105.513814,158.345418 107.548225,150.040956 109.323241,140.740909 C109.650937,139.240902 110.040069,137.986369 110.49065,136.977273 C110.941231,135.968177 111.480555,135.163639 112.108638,134.563636 C112.73672,133.963633 113.467197,133.54091 114.300089,133.295455 C115.132981,133.049999 116.095572,132.927273 117.18789,132.927273 C118.225591,132.927273 119.078952,133.022726 119.747996,133.213636 C120.417041,133.404546 120.949538,133.663635 121.345503,133.990909 C121.741468,134.318183 122.021371,134.713634 122.185218,135.177273 C122.349066,135.640911 122.430988,136.159088 122.430988,136.731818 C122.430988,136.922728 122.321758,137.720448 122.103295,139.125 C121.884831,140.529552 121.604929,142.329534 121.26358,144.525 C120.92223,146.720466 120.553579,149.209077 120.157614,151.990909 C119.761648,154.772741 119.392997,157.629531 119.051647,160.561364 C118.710298,163.493196 118.430396,166.390895 118.211932,169.254545 C117.993469,172.118196 117.884239,174.749988 117.884239,177.15 C117.884239,179.604558 117.972988,181.820445 118.15049,183.797727 C118.327991,185.77501 118.628374,187.459084 119.051647,188.85 C119.47492,190.240916 120.027898,191.304542 120.710597,192.040909 C121.393295,192.777276 122.239829,193.145455 123.250223,193.145455 C124.997931,193.145455 126.588595,192.463643 128.022262,191.1 C129.455929,189.736357 130.76669,187.91592 131.954586,185.638636 C133.142481,183.361352 134.207475,180.722742 135.149599,177.722727 C136.091723,174.722712 136.924603,171.58638 137.648264,168.313636 C138.371924,165.040893 138.999997,161.740926 139.532502,158.413636 C140.065007,155.086347 140.508755,151.943197 140.863758,148.984091 C141.218761,146.024985 141.498663,143.365921 141.703473,141.006818 C141.908282,138.647715 142.051647,136.800007 142.133571,135.463636 C142.215495,134.07272 142.468089,132.95455 142.891362,132.109091 C143.314636,131.263632 143.853959,130.609093 144.50935,130.145455 C145.164741,129.681816 145.908871,129.375001 146.741763,129.225 C147.574655,129.074999 148.428016,129 149.30187,129 C149.984569,129 150.605815,129.074999 151.165628,129.225 C151.725441,129.375001 152.210149,129.634089 152.619768,130.002273 C153.029388,130.370456 153.343424,130.861361 153.561888,131.475 C153.780351,132.088639 153.889581,132.872722 153.889581,133.827273 C153.889581,136.47274 153.718909,139.32953 153.37756,142.397727 C153.036211,145.465924 152.612944,148.540894 152.107747,151.622727 C151.60255,154.704561 151.056399,157.704531 150.469279,160.622727 C149.882158,163.540924 149.336007,166.172716 148.83081,168.518182 C148.325613,170.863648 147.902347,172.840901 147.560997,174.45 C147.219648,176.059099 147.048976,177.081816 147.048976,177.518182 C147.048976,178.581823 147.199167,179.488633 147.499555,180.238636 C147.799942,180.98864 148.202728,181.609088 148.707925,182.1 C149.213122,182.590912 149.813888,182.945453 150.51024,183.163636 C151.206593,183.381819 151.950723,183.490909 152.742654,183.490909 C153.534584,183.490909 154.346983,183.30682 155.179875,182.938636 C155.474263,182.808501 155.764385,182.660479 156.050241,182.49457 C156.054037,182.203407 156.058048,181.906345 156.062274,181.603385 C156.103791,178.627155 156.235258,175.328664 156.456679,171.707812 C156.6781,168.086961 156.996388,164.274152 157.411552,160.269271 C157.826717,156.26439 158.414858,152.307572 159.175993,148.398698 C159.937128,144.489824 160.891992,140.759306 162.040614,137.207031 C163.189236,133.654757 164.586935,130.527704 166.233755,127.825781 C167.880574,125.123858 169.81106,122.977439 172.025271,121.386458 C174.239482,119.795478 176.785786,119 179.66426,119 C181.158852,119 182.383569,119.219442 183.338448,119.658333 C184.293326,120.097224 185.05445,120.714406 185.621841,121.509896 C186.189233,122.305386 186.583633,123.258588 186.805054,124.369531 C187.026475,125.480474 187.137184,126.721695 187.137184,128.093229 C187.137184,130.1231 186.846573,132.372383 186.265343,134.841146 C185.684113,137.309908 184.91607,139.874639 183.961191,142.535417 C183.006313,145.196194 181.919982,147.891219 180.702166,150.620573 C179.48435,153.349927 178.238875,155.996949 176.965704,158.561719 C175.692533,161.126489 174.440139,163.547211 173.208484,165.823958 C171.976829,168.100706 170.890498,170.103116 169.949458,171.83125 L170.779783,172.407292 C171.914566,170.926034 173.187719,169.335078 174.599278,167.634375 C176.010837,165.933672 177.47773,164.349573 179,162.882031 C180.52227,161.414489 182.037598,160.193842 183.546029,159.220052 C185.05446,158.246262 186.472918,157.759375 187.801444,157.759375 C188.133576,157.759375 188.507218,157.821093 188.922383,157.944531 C189.337547,158.067969 189.731948,158.294269 190.105596,158.623437 C190.479244,158.952606 190.790612,159.412063 191.039711,160.001823 C191.28881,160.591583 191.413357,161.352773 191.413357,162.285417 C191.413357,164.150704 191.150424,165.96796 190.624549,167.73724 C190.098674,169.506519 189.524371,171.275772 188.901625,173.045052 C188.278878,174.814332 187.711495,176.617873 187.199458,178.455729 C186.687422,180.293586 186.431408,182.213705 186.431408,184.216146 C186.431408,185.313374 186.597471,186.191143 186.929603,186.849479 C187.261735,187.507816 187.690731,187.836979 188.216606,187.836979 C188.88087,187.836979 189.586639,187.699828 190.333935,187.425521 C191.081231,187.151214 191.828516,186.79462 192.575812,186.355729 C193.323108,185.916838 194.056555,185.416235 194.776173,184.853906 C195.316248,184.431878 195.832932,183.998266 196.326235,183.553065 C196.108744,182.129758 196,180.694367 196,179.246875 C196,176.267693 196.434615,173.484909 197.303857,170.898438 C198.173099,168.311966 199.417678,166.064072 201.037629,164.154687 C202.657581,162.245303 204.639687,160.742193 206.984008,159.645312 C209.328328,158.548432 211.962356,158 214.886171,158 C217.388536,158 219.732821,158.399475 221.919097,159.198438 C224.105373,159.9974 226.15333,161.067181 228.063029,162.407813 C229.102374,163.137445 230.1027,163.925231 231.064015,164.77118 C231.127568,163.414011 231.238443,162.274875 231.39664,161.353759 C231.661067,159.814101 232.238624,158.977344 233.129328,158.84346 L238.139511,158.08033 C238.278684,158.053553 238.410896,158.033471 238.536151,158.020082 C238.661406,158.006694 238.793618,158 238.93279,158 C239.879163,158 240.609807,158.267763 241.124745,158.803296 C241.639683,159.338829 241.911066,159.954682 241.9389,160.650875 L240.310591,186.07518 L240.895112,186.035015 L251.875764,160.851699 C251.959267,160.476826 252.140189,160.115347 252.418534,159.76725 C252.696879,159.419154 253.058721,159.117921 253.504073,158.863543 C253.949425,158.609165 254.44348,158.401649 254.986253,158.240989 C255.529025,158.080329 256.106582,158 256.718941,158 C258.333341,158 259.627626,158.314621 260.601833,158.943872 C261.57604,159.573124 262.063136,160.383105 262.063136,161.373841 C262.063136,162.123588 261.958759,162.833158 261.75,163.502575 C261.541241,164.171991 261.248984,164.901644 260.873218,165.691555 C260.497452,166.481466 260.052107,167.358389 259.537169,168.322348 C259.022231,169.286308 258.458591,170.424298 257.846232,171.736354 C257.651391,172.218334 257.484386,172.713695 257.345214,173.222451 C257.206041,173.677654 257.087747,174.193097 256.990326,174.768795 C256.892905,175.344493 256.844196,175.940265 256.844196,176.556128 C256.844196,177.198767 256.927698,177.828009 257.094705,178.443872 C257.261712,179.059735 257.553969,179.615343 257.971487,180.110711 C258.389004,180.606079 258.959603,181.001028 259.683299,181.295572 C260.406996,181.590115 261.339438,181.737384 262.480652,181.737384 C263.315686,181.737384 264.282921,181.529868 265.382383,181.11483 C265.396213,181.109609 265.410033,181.104379 265.423843,181.099139 C265.546172,180.464585 265.694981,179.825101 265.87027,179.180685 C266.450453,177.047757 267.251647,174.962108 268.273874,172.923676 C269.296101,170.885244 270.504798,168.961587 271.9,167.152648 C273.295202,165.343709 274.821613,163.764285 276.479279,162.41433 C278.136945,161.064375 279.884375,159.991177 281.721622,159.194704 C283.558868,158.398231 285.430621,158 287.336937,158 C287.972376,158 288.469668,158.121494 288.828829,158.364486 C289.18799,158.607478 289.484984,158.884214 289.71982,159.194704 C289.954656,159.505194 290.182581,159.808929 290.403604,160.105919 C290.624626,160.402909 290.900899,160.618899 291.232432,160.753894 C291.563966,160.88889 291.902401,160.976635 292.247748,161.017134 C292.593095,161.057633 292.945344,161.077882 293.304505,161.077882 C293.60841,161.077882 293.919218,161.071132 294.236937,161.057632 C294.554656,161.044133 294.865464,161.037383 295.169369,161.037383 C295.583786,161.037383 295.970569,161.077881 296.32973,161.158879 C296.688891,161.239876 297.006605,161.415367 297.282883,161.685358 C297.559161,161.955349 297.773273,162.333331 297.925225,162.819315 C298.077178,163.305298 298.153153,163.966766 298.153153,164.803738 C298.153153,166.099695 298.015016,167.537375 297.738739,169.116822 C297.462461,170.69627 297.15856,172.316191 296.827027,173.976636 C296.495494,175.63708 296.191593,177.297499 295.915315,178.957944 C295.639038,180.618388 295.500901,182.191062 295.500901,183.676012 C295.500901,184.94497 295.618317,185.937172 295.853153,186.652648 C296.087989,187.368124 296.592188,187.725857 297.365766,187.725857 C297.945949,187.725857 298.553751,187.584114 299.189189,187.300623 C299.824628,187.017133 300.466964,186.645901 301.116216,186.186916 C301.765469,185.727931 302.414711,185.208206 303.063964,184.627726 C303.713216,184.047245 304.327925,183.446524 304.908108,182.825545 C306.261869,181.367594 307.629423,179.720674 309.010811,177.884735 L311,186.875389 C310.364561,187.73936 309.51502,188.751811 308.451351,189.912773 C307.387682,191.073734 306.192799,192.18068 304.866667,193.233645 C303.540534,194.28661 302.117725,195.177566 300.598198,195.906542 C299.078671,196.635518 297.559167,197 296.03964,197 C294.216207,197 292.696703,196.426278 291.481081,195.278816 C290.265459,194.131355 289.21562,192.464185 288.331532,190.277259 C287.668465,191.033233 286.853458,191.802696 285.886486,192.58567 C284.919515,193.368644 283.862768,194.077359 282.716216,194.711838 C281.569664,195.346317 280.374781,195.866042 279.131532,196.271028 C277.888282,196.676014 276.645051,196.878505 275.401802,196.878505 C274.075669,196.878505 272.78409,196.615267 271.527027,196.088785 C270.269964,195.562303 269.157963,194.806339 268.190991,193.820872 C267.224019,192.835405 266.450453,191.633963 265.87027,190.216511 C265.828823,190.115251 265.788857,190.013062 265.750371,189.909943 Z M174.360947,147.675172 C175.990146,143.571128 177.170608,140.110907 177.902367,137.294406 C178.634126,134.477905 179,132.399091 179,131.0579 C179,129.01929 178.723869,128 178.171598,128 C177.453645,128 176.39054,129.139995 174.982249,131.42002 C173.573957,133.700044 171.917169,137.012736 170.011834,141.358194 C169.542404,142.833504 169.107497,144.362439 168.707101,145.945044 C168.306704,147.527649 167.947733,149.103525 167.630178,150.672718 C167.312622,152.241912 167.022684,153.784258 166.760355,155.299804 C166.498026,156.815349 166.270218,158.257108 166.076923,159.625123 C165.607493,162.817157 165.248522,165.942085 165,169 C165.745566,167.310099 166.560153,165.472696 167.443787,163.487733 C168.327421,161.502771 169.197234,159.537955 170.053254,157.593229 C170.909274,155.648502 171.716959,153.811098 172.476331,152.080962 C173.235704,150.350826 173.863903,148.882244 174.360947,147.675172 Z M210.34375,189 C211.335422,189 212.297912,188.520838 213.23125,187.5625 C214.164588,186.604162 214.981246,185.395841 215.68125,183.9375 C216.381253,182.479159 216.942706,180.868064 217.365625,179.104167 C217.788544,177.340269 218,175.652786 218,174.041667 C218,172.763882 217.897918,171.576394 217.69375,170.479167 C217.489582,169.381939 217.183335,168.43056 216.775,167.625 C216.366665,166.81944 215.84167,166.180558 215.2,165.708333 C214.55833,165.236109 213.785421,165 212.88125,165 C211.685411,165 210.547922,165.486106 209.46875,166.458333 C208.389578,167.43056 207.441671,168.673604 206.625,170.1875 C205.808329,171.701396 205.166669,173.374991 204.7,175.208333 C204.233331,177.041676 204,178.805547 204,180.5 C204,181.666673 204.116666,182.763884 204.35,183.791667 C204.583335,184.81945 204.947914,185.715274 205.44375,186.479167 C205.939586,187.243059 206.595829,187.854164 207.4125,188.3125 C208.229171,188.770836 209.206244,189 210.34375,189 Z M275,183.5 C275,184.194448 275.045016,184.868052 275.135048,185.520833 C275.225081,186.173614 275.385851,186.756942 275.617363,187.270833 C275.848876,187.784725 276.157554,188.201387 276.543408,188.520833 C276.929262,188.840279 277.418003,189 278.009646,189 C278.96142,189 279.823147,188.55556 280.594855,187.666667 C281.366563,186.777773 282.035367,185.70834 282.601286,184.458333 C283.167205,183.208327 283.623792,181.916673 283.971061,180.583333 C284.31833,179.249993 284.543408,178.138893 284.646302,177.25 L287,165 C285.945332,165 284.916404,165.284719 283.913183,165.854167 C282.909963,166.423614 281.964635,167.19444 281.07717,168.166667 C280.189706,169.138894 279.372994,170.249994 278.62701,171.5 C277.881025,172.750006 277.237945,174.062493 276.697749,175.4375 C276.157554,176.812507 275.739551,178.194437 275.44373,179.583333 C275.147908,180.972229 275,182.277772 275,183.5 Z" fill="#FFFFFF"></path>
                </g>
            </g>
        </g>
    </g>
</svg>