<?xml version="1.0" encoding="UTF-8"?>
<svg width="338px" height="239px" viewBox="0 0 338 239" version="1.1" xmlns="http://www.w3.org/2000/svg" xmlns:xlink="http://www.w3.org/1999/xlink">
    <!-- Generator: Sketch 55.2 (78181) - https://sketchapp.com -->
    <title>Whova</title>
    <desc>Created with Sketch.</desc>
    <g id="Page-1" stroke="none" stroke-width="1" fill="none" fill-rule="evenodd">
        <g id="My-work" transform="translate(-825.000000, -839.000000)">
            <g id="Group-6" transform="translate(242.000000, 839.000000)">
                <g id="Whova" transform="translate(583.000000, 0.000000)">
                    <path d="M55.7420692,25.1630402 C126.918258,-2.27040609e-14 237.87123,-9.22558165 280.487917,12.6050957 C346.517291,46.4290746 337.368984,90.041743 337.368984,116.704699 C337.368984,177 332.128025,217.017627 266,227 C172.16648,241.164664 56.3583972,244.839903 27.748516,227 C-16.3731933,199.487582 -7.55114085,47.5391974 55.7420692,25.1630402 Z" id="Rectangle" fill="#2DACEE" fill-rule="nonzero"></path>
                    <path d="M242.750371,160.909943 C240.987754,161.459513 239.299423,161.734295 237.685336,161.734295 C236.182274,161.734295 234.83928,161.51339 233.656314,161.071576 C232.473348,160.629761 231.471321,160.033989 230.650204,159.284243 C229.829086,158.534497 229.188902,157.691045 228.729633,156.753862 C228.270364,155.816679 228.026816,154.839346 227.998982,153.821833 C227.191781,155.428432 226.273257,157.075172 225.243381,158.762101 C224.213505,160.44903 223.148851,161.975276 222.049389,163.340886 C220.949927,164.706495 219.850481,165.824403 218.751018,166.694645 C217.651556,167.564886 216.614737,168 215.64053,168 C214.026129,168 212.773596,167.60505 211.882892,166.815139 C210.992188,166.025228 210.331129,165.027812 209.899695,163.822863 C209.46826,162.617914 209.189919,161.305877 209.064664,159.886715 C208.939409,158.467552 208.835031,157.115351 208.751527,155.830072 L208.668024,154.544799 C208.584521,152.53655 208.501019,150.7894 208.417515,149.303296 C208.334012,147.817191 208.257468,146.471685 208.187882,145.266735 C208.143324,144.495179 208.107326,143.762056 208.079888,143.067356 C207.892254,142.914162 207.703191,142.761502 207.5127,142.609375 C206.156155,141.526036 204.819386,140.503651 203.502352,139.542188 C202.185318,138.580724 201.052686,137.775003 200.104421,137.125 L199.788335,137.571875 C200.552215,139.142716 201.125116,140.801554 201.507056,142.548438 C201.888995,144.295321 202.079962,145.9677 202.079962,147.565625 C202.079962,149.16355 201.908751,150.774992 201.566322,152.4 C201.223893,154.025008 200.730013,155.595826 200.084666,157.1125 C199.439319,158.629174 198.649111,160.051035 197.714017,161.378125 C196.778923,162.705215 195.712141,163.856245 194.513641,164.83125 C193.31514,165.806255 192.004711,166.578122 190.582314,167.146875 C189.159918,167.715628 187.645351,168 186.03857,168 C183.72059,168 181.738484,167.478651 180.092192,166.435937 C178.480895,165.415389 177.153485,164.090015 176.109926,162.459776 C175.627463,162.811011 175.116996,163.17381 174.57852,163.548177 C173.651319,164.192798 172.64802,164.844268 171.568592,165.502604 C170.489164,166.160941 169.402833,166.743834 168.309567,167.251302 C167.2163,167.75877 166.12305,168.177082 165.029783,168.50625 C163.936517,168.835418 162.891702,169 161.895307,169 C160.373037,169 159.05145,168.595403 157.930505,167.786198 C156.809561,166.976992 155.889294,165.948357 155.169675,164.70026 C154.450057,163.452164 153.910351,162.087507 153.550542,160.60625 C153.190732,159.124993 153.01083,157.726048 153.01083,156.409375 C153.01083,155.531593 153.128459,154.55096 153.363718,153.467448 C153.598978,152.383936 153.889589,151.293582 154.23556,150.196354 C154.58153,149.099126 154.969011,148.029345 155.398014,146.986979 C155.827018,145.944613 156.228337,145.011983 156.601986,144.189063 C156.975634,143.366142 157.300841,142.6941 157.577617,142.172917 C157.854394,141.651734 158.034296,141.35 158.117329,141.267708 L157.245487,141.144271 C156.774968,141.446008 155.979247,142.214056 154.858303,143.448438 C153.737359,144.682819 152.471126,146.239487 151.059567,148.11849 C149.648007,149.997492 148.188034,152.109624 146.679603,154.454948 C145.171172,156.800272 143.808069,159.220994 142.590253,161.717188 C141.981345,162.951569 141.483155,164.028207 141.095668,164.947135 C140.708181,165.866064 140.327619,166.620396 139.953971,167.210156 C139.580323,167.799916 139.172084,168.245658 138.729242,168.547396 C138.2864,168.849133 137.719017,169 137.027076,169 C136.113714,169 135.394106,168.739412 134.868231,168.218229 C134.342356,167.697046 133.941036,167.004431 133.66426,166.140365 C133.387484,165.276298 133.207582,164.295665 133.124549,163.198438 C133.064918,162.41046 133.0267,161.608344 133.009894,160.792076 C132.924474,160.847016 132.838955,160.901172 132.753339,160.954545 C130.609666,162.290916 128.595735,162.959091 126.711487,162.959091 C125.810325,162.959091 124.963791,162.815911 124.171861,162.529545 C123.379931,162.24318 122.676762,161.800003 122.062333,161.2 C121.447904,160.599997 120.935888,159.822732 120.526269,158.868182 C120.11665,157.913632 119.829921,156.781825 119.666073,155.472727 C118.300676,158.009104 116.832896,160.293172 115.262689,162.325 C113.692483,164.356828 112.026723,166.088629 110.265361,167.520455 C108.503998,168.95228 106.66074,170.056814 104.73553,170.834091 C102.81032,171.611368 100.823697,172 98.7756011,172 C96.1813465,172 93.9762632,171.318189 92.160285,169.954545 C90.3443067,168.590902 88.8696999,166.736375 87.7364203,164.390909 C86.6031407,162.045443 85.7770878,159.290925 85.2582369,156.127273 C84.7393859,152.963621 84.4799644,149.595472 84.4799644,146.022727 C84.4799644,144.71363 84.5482332,143.486369 84.6847729,142.340909 C84.8213126,141.195449 84.9305428,140.172732 85.0124666,139.272727 C84.0293807,145.49094 82.7937148,150.693161 81.3054319,154.879545 C79.817149,159.06593 78.0694668,162.42726 76.062333,164.963636 C74.0551992,167.500013 71.7613664,169.306813 69.1807658,170.384091 C66.6001652,171.461369 63.7397011,172 60.5992876,172 C58.7969634,172 57.0765888,171.406824 55.4381122,170.220455 C53.7996356,169.034085 52.3591632,167.268194 51.1166518,164.922727 C49.8741404,162.577261 48.8774154,159.638654 48.126447,156.106818 C47.3754786,152.574982 47,148.450024 47,143.731818 C47,140.840895 47.1638452,137.875015 47.4915405,134.834091 C47.8192358,131.793167 48.2902908,128.74547 48.9047195,125.690909 C49.5191482,122.636348 50.2769323,119.609106 51.1780944,116.609091 C52.0792565,113.609076 53.103289,110.690923 54.2502226,107.854545 C54.9329212,106.272719 55.6156095,105.038641 56.2983081,104.152273 C56.9810067,103.265905 57.6773488,102.611366 58.3873553,102.188636 C59.0973618,101.765907 59.8141846,101.513637 60.5378451,101.431818 C61.2615055,101.35 61.9919821,101.309091 62.7292965,101.309091 C63.3300713,101.309091 63.8762219,101.35 64.3677649,101.431818 C64.8593079,101.513637 65.2757478,101.68409 65.6170971,101.943182 C65.9584463,102.202274 66.2178679,102.570452 66.3953695,103.047727 C66.5728712,103.525002 66.6616207,104.172723 66.6616207,104.990909 C66.6616207,105.918186 66.4363335,107.288627 65.9857524,109.102273 C65.5351714,110.915918 64.9685401,113.009079 64.2858415,115.381818 C63.6031429,117.754557 62.8658395,120.331804 62.0739092,123.113636 C61.2819788,125.895468 60.5446754,128.718167 59.8619768,131.581818 C59.1792783,134.445469 58.612647,137.26135 58.1620659,140.029545 C57.7114848,142.797741 57.4861977,145.36817 57.4861977,147.740909 C57.4861977,149.677282 57.6159085,151.484083 57.8753339,153.161364 C58.1347594,154.838645 58.5375455,156.297721 59.0837044,157.538636 C59.6298632,158.779552 60.3125516,159.754542 61.1317898,160.463636 C61.9510281,161.172731 62.9204456,161.527273 64.0400712,161.527273 C65.1596969,161.527273 66.2451714,161.200003 67.2965272,160.545455 C68.347883,159.890906 69.3650886,158.990915 70.3481745,157.845455 C71.3312605,156.699994 72.2733704,155.336372 73.1745325,153.754545 C74.0756946,152.172719 74.9427088,150.461373 75.7756011,148.620455 C76.6084933,146.779536 77.3935849,144.843192 78.1308994,142.811364 C78.8682138,140.779535 79.5645559,138.727283 80.2199466,136.654545 C82.5138138,129.345418 84.548225,121.040956 86.3232413,111.740909 C86.6509366,110.240902 87.040069,108.986369 87.49065,107.977273 C87.9412311,106.968177 88.4805549,106.163639 89.1086376,105.563636 C89.7367203,104.963633 90.4671968,104.54091 91.300089,104.295455 C92.1329813,104.049999 93.0955719,103.927273 94.1878896,103.927273 C95.2255914,103.927273 96.0789518,104.022726 96.7479964,104.213636 C97.417041,104.404546 97.9495379,104.663635 98.3455031,104.990909 C98.7414683,105.318183 99.0213705,105.713634 99.1852182,106.177273 C99.3490658,106.640911 99.4309884,107.159088 99.4309884,107.731818 C99.4309884,107.922728 99.3217583,108.720448 99.1032947,110.125 C98.8848312,111.529552 98.604929,113.329534 98.2635797,115.525 C97.9222304,117.720466 97.5535787,120.209077 97.1576135,122.990909 C96.7616484,125.772741 96.3929967,128.629531 96.0516474,131.561364 C95.7102981,134.493196 95.4303959,137.390895 95.2119323,140.254545 C94.9934688,143.118196 94.8842386,145.749988 94.8842386,148.15 C94.8842386,150.604558 94.9729881,152.820445 95.1504898,154.797727 C95.3279914,156.77501 95.6283743,158.459084 96.0516474,159.85 C96.4749205,161.240916 97.027898,162.304542 97.7105966,163.040909 C98.3932952,163.777276 99.2398287,164.145455 100.250223,164.145455 C101.997931,164.145455 103.588595,163.463643 105.022262,162.1 C106.455929,160.736357 107.76669,158.91592 108.954586,156.638636 C110.142481,154.361352 111.207475,151.722742 112.149599,148.722727 C113.091723,145.722712 113.924603,142.58638 114.648264,139.313636 C115.371924,136.040893 115.999997,132.740926 116.532502,129.413636 C117.065007,126.086347 117.508755,122.943197 117.863758,119.984091 C118.218761,117.024985 118.498663,114.365921 118.703473,112.006818 C118.908282,109.647715 119.051647,107.800007 119.133571,106.463636 C119.215495,105.07272 119.468089,103.95455 119.891362,103.109091 C120.314636,102.263632 120.853959,101.609093 121.50935,101.145455 C122.164741,100.681816 122.908871,100.375001 123.741763,100.225 C124.574655,100.074999 125.428016,100 126.30187,100 C126.984569,100 127.605815,100.074999 128.165628,100.225 C128.725441,100.375001 129.210149,100.634089 129.619768,101.002273 C130.029388,101.370456 130.343424,101.861361 130.561888,102.475 C130.780351,103.088639 130.889581,103.872722 130.889581,104.827273 C130.889581,107.47274 130.718909,110.32953 130.37756,113.397727 C130.036211,116.465924 129.612944,119.540894 129.107747,122.622727 C128.60255,125.704561 128.056399,128.704531 127.469279,131.622727 C126.882158,134.540924 126.336007,137.172716 125.83081,139.518182 C125.325613,141.863648 124.902347,143.840901 124.560997,145.45 C124.219648,147.059099 124.048976,148.081816 124.048976,148.518182 C124.048976,149.581823 124.199167,150.488633 124.499555,151.238636 C124.799942,151.98864 125.202728,152.609088 125.707925,153.1 C126.213122,153.590912 126.813888,153.945453 127.51024,154.163636 C128.206593,154.381819 128.950723,154.490909 129.742654,154.490909 C130.534584,154.490909 131.346983,154.30682 132.179875,153.938636 C132.474263,153.808501 132.764385,153.660479 133.050241,153.49457 C133.054037,153.203407 133.058048,152.906345 133.062274,152.603385 C133.103791,149.627155 133.235258,146.328664 133.456679,142.707812 C133.6781,139.086961 133.996388,135.274152 134.411552,131.269271 C134.826717,127.26439 135.414858,123.307572 136.175993,119.398698 C136.937128,115.489824 137.891992,111.759306 139.040614,108.207031 C140.189236,104.654757 141.586935,101.527704 143.233755,98.8257813 C144.880574,96.123858 146.81106,93.9774385 149.025271,92.3864583 C151.239482,90.7954782 153.785786,90 156.66426,90 C158.158852,90 159.383569,90.2194423 160.338448,90.6583333 C161.293326,91.0972244 162.05445,91.7144057 162.621841,92.5098958 C163.189233,93.3053859 163.583633,94.2585882 163.805054,95.3695312 C164.026475,96.4804743 164.137184,97.7216945 164.137184,99.0932292 C164.137184,101.1231 163.846573,103.372383 163.265343,105.841146 C162.684113,108.309908 161.91607,110.874639 160.961191,113.535417 C160.006313,116.196194 158.919982,118.891219 157.702166,121.620573 C156.48435,124.349927 155.238875,126.996949 153.965704,129.561719 C152.692533,132.126489 151.440139,134.547211 150.208484,136.823958 C148.976829,139.100706 147.890498,141.103116 146.949458,142.83125 L147.779783,143.407292 C148.914566,141.926034 150.187719,140.335078 151.599278,138.634375 C153.010837,136.933672 154.47773,135.349573 156,133.882031 C157.52227,132.414489 159.037598,131.193842 160.546029,130.220052 C162.05446,129.246262 163.472918,128.759375 164.801444,128.759375 C165.133576,128.759375 165.507218,128.821093 165.922383,128.944531 C166.337547,129.067969 166.731948,129.294269 167.105596,129.623437 C167.479244,129.952606 167.790612,130.412063 168.039711,131.001823 C168.28881,131.591583 168.413357,132.352773 168.413357,133.285417 C168.413357,135.150704 168.150424,136.96796 167.624549,138.73724 C167.098674,140.506519 166.524371,142.275772 165.901625,144.045052 C165.278878,145.814332 164.711495,147.617873 164.199458,149.455729 C163.687422,151.293586 163.431408,153.213705 163.431408,155.216146 C163.431408,156.313374 163.597471,157.191143 163.929603,157.849479 C164.261735,158.507816 164.690731,158.836979 165.216606,158.836979 C165.88087,158.836979 166.586639,158.699828 167.333935,158.425521 C168.081231,158.151214 168.828516,157.79462 169.575812,157.355729 C170.323108,156.916838 171.056555,156.416235 171.776173,155.853906 C172.316248,155.431878 172.832932,154.998266 173.326235,154.553065 C173.108744,153.129758 173,151.694367 173,150.246875 C173,147.267693 173.434615,144.484909 174.303857,141.898438 C175.173099,139.311966 176.417678,137.064072 178.037629,135.154687 C179.657581,133.245303 181.639687,131.742193 183.984008,130.645312 C186.328328,129.548432 188.962356,129 191.886171,129 C194.388536,129 196.732821,129.399475 198.919097,130.198438 C201.105373,130.9974 203.15333,132.067181 205.063029,133.407813 C206.102374,134.137445 207.1027,134.925231 208.064015,135.77118 C208.127568,134.414011 208.238443,133.274875 208.39664,132.353759 C208.661067,130.814101 209.238624,129.977344 210.129328,129.84346 L215.139511,129.08033 C215.278684,129.053553 215.410896,129.033471 215.536151,129.020082 C215.661406,129.006694 215.793618,129 215.93279,129 C216.879163,129 217.609807,129.267763 218.124745,129.803296 C218.639683,130.338829 218.911066,130.954682 218.9389,131.650875 L217.310591,157.07518 L217.895112,157.035015 L228.875764,131.851699 C228.959267,131.476826 229.140189,131.115347 229.418534,130.76725 C229.696879,130.419154 230.058721,130.117921 230.504073,129.863543 C230.949425,129.609165 231.44348,129.401649 231.986253,129.240989 C232.529025,129.080329 233.106582,129 233.718941,129 C235.333341,129 236.627626,129.314621 237.601833,129.943872 C238.57604,130.573124 239.063136,131.383105 239.063136,132.373841 C239.063136,133.123588 238.958759,133.833158 238.75,134.502575 C238.541241,135.171991 238.248984,135.901644 237.873218,136.691555 C237.497452,137.481466 237.052107,138.358389 236.537169,139.322348 C236.022231,140.286308 235.458591,141.424298 234.846232,142.736354 C234.651391,143.218334 234.484386,143.713695 234.345214,144.222451 C234.206041,144.677654 234.087747,145.193097 233.990326,145.768795 C233.892905,146.344493 233.844196,146.940265 233.844196,147.556128 C233.844196,148.198767 233.927698,148.828009 234.094705,149.443872 C234.261712,150.059735 234.553969,150.615343 234.971487,151.110711 C235.389004,151.606079 235.959603,152.001028 236.683299,152.295572 C237.406996,152.590115 238.339438,152.737384 239.480652,152.737384 C240.315686,152.737384 241.282921,152.529868 242.382383,152.11483 C242.396213,152.109609 242.410033,152.104379 242.423843,152.099139 C242.546172,151.464585 242.694981,150.825101 242.87027,150.180685 C243.450453,148.047757 244.251647,145.962108 245.273874,143.923676 C246.296101,141.885244 247.504798,139.961587 248.9,138.152648 C250.295202,136.343709 251.821613,134.764285 253.479279,133.41433 C255.136945,132.064375 256.884375,130.991177 258.721622,130.194704 C260.558868,129.398231 262.430621,129 264.336937,129 C264.972376,129 265.469668,129.121494 265.828829,129.364486 C266.18799,129.607478 266.484984,129.884214 266.71982,130.194704 C266.954656,130.505194 267.182581,130.808929 267.403604,131.105919 C267.624626,131.402909 267.900899,131.618899 268.232432,131.753894 C268.563966,131.88889 268.902401,131.976635 269.247748,132.017134 C269.593095,132.057633 269.945344,132.077882 270.304505,132.077882 C270.60841,132.077882 270.919218,132.071132 271.236937,132.057632 C271.554656,132.044133 271.865464,132.037383 272.169369,132.037383 C272.583786,132.037383 272.970569,132.077881 273.32973,132.158879 C273.688891,132.239876 274.006605,132.415367 274.282883,132.685358 C274.559161,132.955349 274.773273,133.333331 274.925225,133.819315 C275.077178,134.305298 275.153153,134.966766 275.153153,135.803738 C275.153153,137.099695 275.015016,138.537375 274.738739,140.116822 C274.462461,141.69627 274.15856,143.316191 273.827027,144.976636 C273.495494,146.63708 273.191593,148.297499 272.915315,149.957944 C272.639038,151.618388 272.500901,153.191062 272.500901,154.676012 C272.500901,155.94497 272.618317,156.937172 272.853153,157.652648 C273.087989,158.368124 273.592188,158.725857 274.365766,158.725857 C274.945949,158.725857 275.553751,158.584114 276.189189,158.300623 C276.824628,158.017133 277.466964,157.645901 278.116216,157.186916 C278.765469,156.727931 279.414711,156.208206 280.063964,155.627726 C280.713216,155.047245 281.327925,154.446524 281.908108,153.825545 C283.261869,152.367594 284.629423,150.720674 286.010811,148.884735 L288,157.875389 C287.364561,158.73936 286.51502,159.751811 285.451351,160.912773 C284.387682,162.073734 283.192799,163.18068 281.866667,164.233645 C280.540534,165.28661 279.117725,166.177566 277.598198,166.906542 C276.078671,167.635518 274.559167,168 273.03964,168 C271.216207,168 269.696703,167.426278 268.481081,166.278816 C267.265459,165.131355 266.21562,163.464185 265.331532,161.277259 C264.668465,162.033233 263.853458,162.802696 262.886486,163.58567 C261.919515,164.368644 260.862768,165.077359 259.716216,165.711838 C258.569664,166.346317 257.374781,166.866042 256.131532,167.271028 C254.888282,167.676014 253.645051,167.878505 252.401802,167.878505 C251.075669,167.878505 249.78409,167.615267 248.527027,167.088785 C247.269964,166.562303 246.157963,165.806339 245.190991,164.820872 C244.224019,163.835405 243.450453,162.633963 242.87027,161.216511 C242.828823,161.115251 242.788857,161.013062 242.750371,160.909943 Z M151.360947,118.675172 C152.990146,114.571128 154.170608,111.110907 154.902367,108.294406 C155.634126,105.477905 156,103.399091 156,102.0579 C156,100.01929 155.723869,99 155.171598,99 C154.453645,99 153.39054,100.139995 151.982249,102.42002 C150.573957,104.700044 148.917169,108.012736 147.011834,112.358194 C146.542404,113.833504 146.107497,115.362439 145.707101,116.945044 C145.306704,118.527649 144.947733,120.103525 144.630178,121.672718 C144.312622,123.241912 144.022684,124.784258 143.760355,126.299804 C143.498026,127.815349 143.270218,129.257108 143.076923,130.625123 C142.607493,133.817157 142.248522,136.942085 142,140 C142.745566,138.310099 143.560153,136.472696 144.443787,134.487733 C145.327421,132.502771 146.197234,130.537955 147.053254,128.593229 C147.909274,126.648502 148.716959,124.811098 149.476331,123.080962 C150.235704,121.350826 150.863903,119.882244 151.360947,118.675172 Z M187.34375,160 C188.335422,160 189.297912,159.520838 190.23125,158.5625 C191.164588,157.604162 191.981246,156.395841 192.68125,154.9375 C193.381253,153.479159 193.942706,151.868064 194.365625,150.104167 C194.788544,148.340269 195,146.652786 195,145.041667 C195,143.763882 194.897918,142.576394 194.69375,141.479167 C194.489582,140.381939 194.183335,139.43056 193.775,138.625 C193.366665,137.81944 192.84167,137.180558 192.2,136.708333 C191.55833,136.236109 190.785421,136 189.88125,136 C188.685411,136 187.547922,136.486106 186.46875,137.458333 C185.389578,138.43056 184.441671,139.673604 183.625,141.1875 C182.808329,142.701396 182.166669,144.374991 181.7,146.208333 C181.233331,148.041676 181,149.805547 181,151.5 C181,152.666673 181.116666,153.763884 181.35,154.791667 C181.583335,155.81945 181.947914,156.715274 182.44375,157.479167 C182.939586,158.243059 183.595829,158.854164 184.4125,159.3125 C185.229171,159.770836 186.206244,160 187.34375,160 Z M252,154.5 C252,155.194448 252.045016,155.868052 252.135048,156.520833 C252.225081,157.173614 252.385851,157.756942 252.617363,158.270833 C252.848876,158.784725 253.157554,159.201387 253.543408,159.520833 C253.929262,159.840279 254.418003,160 255.009646,160 C255.96142,160 256.823147,159.55556 257.594855,158.666667 C258.366563,157.777773 259.035367,156.70834 259.601286,155.458333 C260.167205,154.208327 260.623792,152.916673 260.971061,151.583333 C261.31833,150.249993 261.543408,149.138893 261.646302,148.25 L264,136 C262.945332,136 261.916404,136.284719 260.913183,136.854167 C259.909963,137.423614 258.964635,138.19444 258.07717,139.166667 C257.189706,140.138894 256.372994,141.249994 255.62701,142.5 C254.881025,143.750006 254.237945,145.062493 253.697749,146.4375 C253.157554,147.812507 252.739551,149.194437 252.44373,150.583333 C252.147908,151.972229 252,153.277772 252,154.5 Z" fill="#FFFFFF"></path>
                </g>
            </g>
        </g>
    </g>
</svg>