<?xml version="1.0" encoding="UTF-8"?>
<svg width="338px" height="225px" viewBox="0 0 338 225" version="1.1" xmlns="http://www.w3.org/2000/svg" xmlns:xlink="http://www.w3.org/1999/xlink">
    <!-- Generator: Sketch 55.2 (78181) - https://sketchapp.com -->
    <title>Whova</title>
    <desc>Created with Sketch.</desc>
    <g id="Page-1" stroke="none" stroke-width="1" fill="none" fill-rule="evenodd">
        <g id="My-work" transform="translate(-825.000000, -853.000000)">
            <g id="Group-6" transform="translate(242.000000, 853.000000)">
                <g id="Whova" transform="translate(583.000000, 0.000000)">
                    <path d="M55.7420692,11.1630402 C126.918258,-14 236.069661,11.3679981 278.686349,33.1986754 C344.715722,67.0226544 337.368984,76.041743 337.368984,102.704699 C337.368984,163 332.128025,203.017627 266,213 C172.16648,227.164664 56.3583972,230.839903 27.748516,213 C-16.3731933,185.487582 -7.55114085,33.5391974 55.7420692,11.1630402 Z" id="Rectangle" fill="#2DACEE" fill-rule="nonzero"></path>
                    <path d="M242.750371,146.909943 C240.987754,147.459513 239.299423,147.734295 237.685336,147.734295 C236.182274,147.734295 234.83928,147.51339 233.656314,147.071576 C232.473348,146.629761 231.471321,146.033989 230.650204,145.284243 C229.829086,144.534497 229.188902,143.691045 228.729633,142.753862 C228.270364,141.816679 228.026816,140.839346 227.998982,139.821833 C227.191781,141.428432 226.273257,143.075172 225.243381,144.762101 C224.213505,146.44903 223.148851,147.975276 222.049389,149.340886 C220.949927,150.706495 219.850481,151.824403 218.751018,152.694645 C217.651556,153.564886 216.614737,154 215.64053,154 C214.026129,154 212.773596,153.60505 211.882892,152.815139 C210.992188,152.025228 210.331129,151.027812 209.899695,149.822863 C209.46826,148.617914 209.189919,147.305877 209.064664,145.886715 C208.939409,144.467552 208.835031,143.115351 208.751527,141.830072 L208.668024,140.544799 C208.584521,138.53655 208.501019,136.7894 208.417515,135.303296 C208.334012,133.817191 208.257468,132.471685 208.187882,131.266735 C208.143324,130.495179 208.107326,129.762056 208.079888,129.067356 C207.892254,128.914162 207.703191,128.761502 207.5127,128.609375 C206.156155,127.526036 204.819386,126.503651 203.502352,125.542187 C202.185318,124.580724 201.052686,123.775003 200.104421,123.125 L199.788335,123.571875 C200.552215,125.142716 201.125116,126.801554 201.507056,128.548438 C201.888995,130.295321 202.079962,131.9677 202.079962,133.565625 C202.079962,135.16355 201.908751,136.774992 201.566322,138.4 C201.223893,140.025008 200.730013,141.595826 200.084666,143.1125 C199.439319,144.629174 198.649111,146.051035 197.714017,147.378125 C196.778923,148.705215 195.712141,149.856245 194.513641,150.83125 C193.31514,151.806255 192.004711,152.578122 190.582314,153.146875 C189.159918,153.715628 187.645351,154 186.03857,154 C183.72059,154 181.738484,153.478651 180.092192,152.435937 C178.480895,151.415389 177.153485,150.090015 176.109926,148.459776 C175.627463,148.811011 175.116996,149.17381 174.57852,149.548177 C173.651319,150.192798 172.64802,150.844268 171.568592,151.502604 C170.489164,152.160941 169.402833,152.743834 168.309567,153.251302 C167.2163,153.75877 166.12305,154.177082 165.029783,154.50625 C163.936517,154.835418 162.891702,155 161.895307,155 C160.373037,155 159.05145,154.595403 157.930505,153.786198 C156.809561,152.976992 155.889294,151.948357 155.169675,150.70026 C154.450057,149.452164 153.910351,148.087507 153.550542,146.60625 C153.190732,145.124993 153.01083,143.726048 153.01083,142.409375 C153.01083,141.531593 153.128459,140.55096 153.363718,139.467448 C153.598978,138.383936 153.889589,137.293582 154.23556,136.196354 C154.58153,135.099126 154.969011,134.029345 155.398014,132.986979 C155.827018,131.944613 156.228337,131.011983 156.601986,130.189063 C156.975634,129.366142 157.300841,128.6941 157.577617,128.172917 C157.854394,127.651734 158.034296,127.35 158.117329,127.267708 L157.245487,127.144271 C156.774968,127.446008 155.979247,128.214056 154.858303,129.448438 C153.737359,130.682819 152.471126,132.239487 151.059567,134.11849 C149.648007,135.997492 148.188034,138.109624 146.679603,140.454948 C145.171172,142.800272 143.808069,145.220994 142.590253,147.717188 C141.981345,148.951569 141.483155,150.028207 141.095668,150.947135 C140.708181,151.866064 140.327619,152.620396 139.953971,153.210156 C139.580323,153.799916 139.172084,154.245658 138.729242,154.547396 C138.2864,154.849133 137.719017,155 137.027076,155 C136.113714,155 135.394106,154.739412 134.868231,154.218229 C134.342356,153.697046 133.941036,153.004431 133.66426,152.140365 C133.387484,151.276298 133.207582,150.295665 133.124549,149.198438 C133.064918,148.41046 133.0267,147.608344 133.009894,146.792076 C132.924474,146.847016 132.838955,146.901172 132.753339,146.954545 C130.609666,148.290916 128.595735,148.959091 126.711487,148.959091 C125.810325,148.959091 124.963791,148.815911 124.171861,148.529545 C123.379931,148.24318 122.676762,147.800003 122.062333,147.2 C121.447904,146.599997 120.935888,145.822732 120.526269,144.868182 C120.11665,143.913632 119.829921,142.781825 119.666073,141.472727 C118.300676,144.009104 116.832896,146.293172 115.262689,148.325 C113.692483,150.356828 112.026723,152.088629 110.265361,153.520455 C108.503998,154.95228 106.66074,156.056814 104.73553,156.834091 C102.81032,157.611368 100.823697,158 98.7756011,158 C96.1813465,158 93.9762632,157.318189 92.160285,155.954545 C90.3443067,154.590902 88.8696999,152.736375 87.7364203,150.390909 C86.6031407,148.045443 85.7770878,145.290925 85.2582369,142.127273 C84.7393859,138.963621 84.4799644,135.595472 84.4799644,132.022727 C84.4799644,130.71363 84.5482332,129.486369 84.6847729,128.340909 C84.8213126,127.195449 84.9305428,126.172732 85.0124666,125.272727 C84.0293807,131.49094 82.7937148,136.693161 81.3054319,140.879545 C79.817149,145.06593 78.0694668,148.42726 76.062333,150.963636 C74.0551992,153.500013 71.7613664,155.306813 69.1807658,156.384091 C66.6001652,157.461369 63.7397011,158 60.5992876,158 C58.7969634,158 57.0765888,157.406824 55.4381122,156.220455 C53.7996356,155.034085 52.3591632,153.268194 51.1166518,150.922727 C49.8741404,148.577261 48.8774154,145.638654 48.126447,142.106818 C47.3754786,138.574982 47,134.450024 47,129.731818 C47,126.840895 47.1638452,123.875015 47.4915405,120.834091 C47.8192358,117.793167 48.2902908,114.74547 48.9047195,111.690909 C49.5191482,108.636348 50.2769323,105.609106 51.1780944,102.609091 C52.0792565,99.6090759 53.103289,96.6909233 54.2502226,93.8545455 C54.9329212,92.2727194 55.6156095,91.0386408 56.2983081,90.1522727 C56.9810067,89.2659047 57.6773488,88.6113658 58.3873553,88.1886364 C59.0973618,87.765907 59.8141846,87.5136368 60.5378451,87.4318182 C61.2615055,87.3499996 61.9919821,87.3090909 62.7292965,87.3090909 C63.3300713,87.3090909 63.8762219,87.3499996 64.3677649,87.4318182 C64.8593079,87.5136368 65.2757478,87.6840896 65.6170971,87.9431818 C65.9584463,88.202274 66.2178679,88.5704522 66.3953695,89.0477273 C66.5728712,89.5250024 66.6616207,90.1727232 66.6616207,90.9909091 C66.6616207,91.9181865 66.4363335,93.2886273 65.9857524,95.1022727 C65.5351714,96.9159182 64.9685401,99.009079 64.2858415,101.381818 C63.6031429,103.754557 62.8658395,106.331804 62.0739092,109.113636 C61.2819788,111.895468 60.5446754,114.718167 59.8619768,117.581818 C59.1792783,120.445469 58.612647,123.26135 58.1620659,126.029545 C57.7114848,128.797741 57.4861977,131.36817 57.4861977,133.740909 C57.4861977,135.677282 57.6159085,137.484083 57.8753339,139.161364 C58.1347594,140.838645 58.5375455,142.297721 59.0837044,143.538636 C59.6298632,144.779552 60.3125516,145.754542 61.1317898,146.463636 C61.9510281,147.172731 62.9204456,147.527273 64.0400712,147.527273 C65.1596969,147.527273 66.2451714,147.200003 67.2965272,146.545455 C68.347883,145.890906 69.3650886,144.990915 70.3481745,143.845455 C71.3312605,142.699994 72.2733704,141.336372 73.1745325,139.754545 C74.0756946,138.172719 74.9427088,136.461373 75.7756011,134.620455 C76.6084933,132.779536 77.3935849,130.843192 78.1308994,128.811364 C78.8682138,126.779535 79.5645559,124.727283 80.2199466,122.654545 C82.5138138,115.345418 84.548225,107.040956 86.3232413,97.7409091 C86.6509366,96.2409016 87.040069,94.9863687 87.49065,93.9772727 C87.9412311,92.9681768 88.4805549,92.1636394 89.1086376,91.5636364 C89.7367203,90.9636334 90.4671968,90.5409103 91.300089,90.2954545 C92.1329813,90.0499988 93.0955719,89.9272727 94.1878896,89.9272727 C95.2255914,89.9272727 96.0789518,90.0227263 96.7479964,90.2136364 C97.417041,90.4045464 97.9495379,90.6636347 98.3455031,90.9909091 C98.7414683,91.3181835 99.0213705,91.713634 99.1852182,92.1772727 C99.3490658,92.6409114 99.4309884,93.159088 99.4309884,93.7318182 C99.4309884,93.9227282 99.3217583,94.7204475 99.1032947,96.125 C98.8848312,97.5295525 98.604929,99.3295345 98.2635797,101.525 C97.9222304,103.720466 97.5535787,106.209077 97.1576135,108.990909 C96.7616484,111.772741 96.3929967,114.629531 96.0516474,117.561364 C95.7102981,120.493196 95.4303959,123.390895 95.2119323,126.254545 C94.9934688,129.118196 94.8842386,131.749988 94.8842386,134.15 C94.8842386,136.604558 94.9729881,138.820445 95.1504898,140.797727 C95.3279914,142.77501 95.6283743,144.459084 96.0516474,145.85 C96.4749205,147.240916 97.027898,148.304542 97.7105966,149.040909 C98.3932952,149.777276 99.2398287,150.145455 100.250223,150.145455 C101.997931,150.145455 103.588595,149.463643 105.022262,148.1 C106.455929,146.736357 107.76669,144.91592 108.954586,142.638636 C110.142481,140.361352 111.207475,137.722742 112.149599,134.722727 C113.091723,131.722712 113.924603,128.58638 114.648264,125.313636 C115.371924,122.040893 115.999997,118.740926 116.532502,115.413636 C117.065007,112.086347 117.508755,108.943197 117.863758,105.984091 C118.218761,103.024985 118.498663,100.365921 118.703473,98.0068182 C118.908282,95.6477155 119.051647,93.8000067 119.133571,92.4636364 C119.215495,91.0727203 119.468089,89.9545497 119.891362,89.1090909 C120.314636,88.2636321 120.853959,87.6090932 121.50935,87.1454545 C122.164741,86.6818159 122.908871,86.3750007 123.741763,86.225 C124.574655,86.0749993 125.428016,86 126.30187,86 C126.984569,86 127.605815,86.0749993 128.165628,86.225 C128.725441,86.3750007 129.210149,86.6340891 129.619768,87.0022727 C130.029388,87.3704564 130.343424,87.8613606 130.561888,88.475 C130.780351,89.0886394 130.889581,89.8727225 130.889581,90.8272727 C130.889581,93.4727405 130.718909,96.3295301 130.37756,99.3977273 C130.036211,102.465924 129.612944,105.540894 129.107747,108.622727 C128.60255,111.704561 128.056399,114.704531 127.469279,117.622727 C126.882158,120.540924 126.336007,123.172716 125.83081,125.518182 C125.325613,127.863648 124.902347,129.840901 124.560997,131.45 C124.219648,133.059099 124.048976,134.081816 124.048976,134.518182 C124.048976,135.581823 124.199167,136.488633 124.499555,137.238636 C124.799942,137.98864 125.202728,138.609088 125.707925,139.1 C126.213122,139.590912 126.813888,139.945453 127.51024,140.163636 C128.206593,140.381819 128.950723,140.490909 129.742654,140.490909 C130.534584,140.490909 131.346983,140.30682 132.179875,139.938636 C132.474263,139.808501 132.764385,139.660479 133.050241,139.49457 C133.054037,139.203407 133.058048,138.906345 133.062274,138.603385 C133.103791,135.627155 133.235258,132.328664 133.456679,128.707812 C133.6781,125.086961 133.996388,121.274152 134.411552,117.269271 C134.826717,113.26439 135.414858,109.307572 136.175993,105.398698 C136.937128,101.489824 137.891992,97.759306 139.040614,94.2070312 C140.189236,90.6547565 141.586935,87.5277045 143.233755,84.8257813 C144.880574,82.123858 146.81106,79.9774385 149.025271,78.3864583 C151.239482,76.7954782 153.785786,76 156.66426,76 C158.158852,76 159.383569,76.2194423 160.338448,76.6583333 C161.293326,77.0972244 162.05445,77.7144057 162.621841,78.5098958 C163.189233,79.3053859 163.583633,80.2585882 163.805054,81.3695312 C164.026475,82.4804743 164.137184,83.7216945 164.137184,85.0932292 C164.137184,87.1231004 163.846573,89.3723835 163.265343,91.8411458 C162.684113,94.3099082 161.91607,96.8746395 160.961191,99.5354167 C160.006313,102.196194 158.919982,104.891219 157.702166,107.620573 C156.48435,110.349927 155.238875,112.996949 153.965704,115.561719 C152.692533,118.126489 151.440139,120.547211 150.208484,122.823958 C148.976829,125.100706 147.890498,127.103116 146.949458,128.83125 L147.779783,129.407292 C148.914566,127.926034 150.187719,126.335078 151.599278,124.634375 C153.010837,122.933672 154.47773,121.349573 156,119.882031 C157.52227,118.414489 159.037598,117.193842 160.546029,116.220052 C162.05446,115.246262 163.472918,114.759375 164.801444,114.759375 C165.133576,114.759375 165.507218,114.821093 165.922383,114.944531 C166.337547,115.067969 166.731948,115.294269 167.105596,115.623437 C167.479244,115.952606 167.790612,116.412063 168.039711,117.001823 C168.28881,117.591583 168.413357,118.352773 168.413357,119.285417 C168.413357,121.150704 168.150424,122.96796 167.624549,124.73724 C167.098674,126.506519 166.524371,128.275772 165.901625,130.045052 C165.278878,131.814332 164.711495,133.617873 164.199458,135.455729 C163.687422,137.293586 163.431408,139.213705 163.431408,141.216146 C163.431408,142.313374 163.597471,143.191143 163.929603,143.849479 C164.261735,144.507816 164.690731,144.836979 165.216606,144.836979 C165.88087,144.836979 166.586639,144.699828 167.333935,144.425521 C168.081231,144.151214 168.828516,143.79462 169.575812,143.355729 C170.323108,142.916838 171.056555,142.416235 171.776173,141.853906 C172.316248,141.431878 172.832932,140.998266 173.326235,140.553065 C173.108744,139.129758 173,137.694367 173,136.246875 C173,133.267693 173.434615,130.484909 174.303857,127.898438 C175.173099,125.311966 176.417678,123.064072 178.037629,121.154687 C179.657581,119.245303 181.639687,117.742193 183.984008,116.645313 C186.328328,115.548432 188.962356,115 191.886171,115 C194.388536,115 196.732821,115.399475 198.919097,116.198437 C201.105373,116.9974 203.15333,118.067181 205.063029,119.407813 C206.102374,120.137445 207.1027,120.925231 208.064015,121.77118 C208.127568,120.414011 208.238443,119.274875 208.39664,118.353759 C208.661067,116.814101 209.238624,115.977344 210.129328,115.84346 L215.139511,115.08033 C215.278684,115.053553 215.410896,115.033471 215.536151,115.020082 C215.661406,115.006694 215.793618,115 215.93279,115 C216.879163,115 217.609807,115.267763 218.124745,115.803296 C218.639683,116.338829 218.911066,116.954682 218.9389,117.650875 L217.310591,143.07518 L217.895112,143.035015 L228.875764,117.851699 C228.959267,117.476826 229.140189,117.115347 229.418534,116.76725 C229.696879,116.419154 230.058721,116.117921 230.504073,115.863543 C230.949425,115.609165 231.44348,115.401649 231.986253,115.240989 C232.529025,115.080329 233.106582,115 233.718941,115 C235.333341,115 236.627626,115.314621 237.601833,115.943872 C238.57604,116.573124 239.063136,117.383105 239.063136,118.373841 C239.063136,119.123588 238.958759,119.833158 238.75,120.502575 C238.541241,121.171991 238.248984,121.901644 237.873218,122.691555 C237.497452,123.481466 237.052107,124.358389 236.537169,125.322348 C236.022231,126.286308 235.458591,127.424298 234.846232,128.736354 C234.651391,129.218334 234.484386,129.713695 234.345214,130.222451 C234.206041,130.677654 234.087747,131.193097 233.990326,131.768795 C233.892905,132.344493 233.844196,132.940265 233.844196,133.556128 C233.844196,134.198767 233.927698,134.828009 234.094705,135.443872 C234.261712,136.059735 234.553969,136.615343 234.971487,137.110711 C235.389004,137.606079 235.959603,138.001028 236.683299,138.295572 C237.406996,138.590115 238.339438,138.737384 239.480652,138.737384 C240.315686,138.737384 241.282921,138.529868 242.382383,138.11483 C242.396213,138.109609 242.410033,138.104379 242.423843,138.099139 C242.546172,137.464585 242.694981,136.825101 242.87027,136.180685 C243.450453,134.047757 244.251647,131.962108 245.273874,129.923676 C246.296101,127.885244 247.504798,125.961587 248.9,124.152648 C250.295202,122.343709 251.821613,120.764285 253.479279,119.41433 C255.136945,118.064375 256.884375,116.991177 258.721622,116.194704 C260.558868,115.398231 262.430621,115 264.336937,115 C264.972376,115 265.469668,115.121494 265.828829,115.364486 C266.18799,115.607478 266.484984,115.884214 266.71982,116.194704 C266.954656,116.505194 267.182581,116.808929 267.403604,117.105919 C267.624626,117.402909 267.900899,117.618899 268.232432,117.753894 C268.563966,117.88889 268.902401,117.976635 269.247748,118.017134 C269.593095,118.057633 269.945344,118.077882 270.304505,118.077882 C270.60841,118.077882 270.919218,118.071132 271.236937,118.057632 C271.554656,118.044133 271.865464,118.037383 272.169369,118.037383 C272.583786,118.037383 272.970569,118.077881 273.32973,118.158879 C273.688891,118.239876 274.006605,118.415367 274.282883,118.685358 C274.559161,118.955349 274.773273,119.333331 274.925225,119.819315 C275.077178,120.305298 275.153153,120.966766 275.153153,121.803738 C275.153153,123.099695 275.015016,124.537375 274.738739,126.116822 C274.462461,127.69627 274.15856,129.316191 273.827027,130.976636 C273.495494,132.63708 273.191593,134.297499 272.915315,135.957944 C272.639038,137.618388 272.500901,139.191062 272.500901,140.676012 C272.500901,141.94497 272.618317,142.937172 272.853153,143.652648 C273.087989,144.368124 273.592188,144.725857 274.365766,144.725857 C274.945949,144.725857 275.553751,144.584114 276.189189,144.300623 C276.824628,144.017133 277.466964,143.645901 278.116216,143.186916 C278.765469,142.727931 279.414711,142.208206 280.063964,141.627726 C280.713216,141.047245 281.327925,140.446524 281.908108,139.825545 C283.261869,138.367594 284.629423,136.720674 286.010811,134.884735 L288,143.875389 C287.364561,144.73936 286.51502,145.751811 285.451351,146.912773 C284.387682,148.073734 283.192799,149.18068 281.866667,150.233645 C280.540534,151.28661 279.117725,152.177566 277.598198,152.906542 C276.078671,153.635518 274.559167,154 273.03964,154 C271.216207,154 269.696703,153.426278 268.481081,152.278816 C267.265459,151.131355 266.21562,149.464185 265.331532,147.277259 C264.668465,148.033233 263.853458,148.802696 262.886486,149.58567 C261.919515,150.368644 260.862768,151.077359 259.716216,151.711838 C258.569664,152.346317 257.374781,152.866042 256.131532,153.271028 C254.888282,153.676014 253.645051,153.878505 252.401802,153.878505 C251.075669,153.878505 249.78409,153.615267 248.527027,153.088785 C247.269964,152.562303 246.157963,151.806339 245.190991,150.820872 C244.224019,149.835405 243.450453,148.633963 242.87027,147.216511 C242.828823,147.115251 242.788857,147.013062 242.750371,146.909943 Z M151.360947,104.675172 C152.990146,100.571128 154.170608,97.1109071 154.902367,94.2944063 C155.634126,91.4779054 156,89.3990908 156,88.0578999 C156,86.0192898 155.723869,85 155.171598,85 C154.453645,85 153.39054,86.1399951 151.982249,88.4200196 C150.573957,90.7000441 148.917169,94.0127359 147.011834,98.3581943 C146.542404,99.8335043 146.107497,101.362439 145.707101,102.945044 C145.306704,104.527649 144.947733,106.103525 144.630178,107.672718 C144.312622,109.241912 144.022684,110.784258 143.760355,112.299804 C143.498026,113.815349 143.270218,115.257108 143.076923,116.625123 C142.607493,119.817157 142.248522,122.942085 142,126 C142.745566,124.310099 143.560153,122.472696 144.443787,120.487733 C145.327421,118.502771 146.197234,116.537955 147.053254,114.593229 C147.909274,112.648502 148.716959,110.811098 149.476331,109.080962 C150.235704,107.350826 150.863903,105.882244 151.360947,104.675172 Z M187.34375,146 C188.335422,146 189.297912,145.520838 190.23125,144.5625 C191.164588,143.604162 191.981246,142.395841 192.68125,140.9375 C193.381253,139.479159 193.942706,137.868064 194.365625,136.104167 C194.788544,134.340269 195,132.652786 195,131.041667 C195,129.763882 194.897918,128.576394 194.69375,127.479167 C194.489582,126.381939 194.183335,125.43056 193.775,124.625 C193.366665,123.81944 192.84167,123.180558 192.2,122.708333 C191.55833,122.236109 190.785421,122 189.88125,122 C188.685411,122 187.547922,122.486106 186.46875,123.458333 C185.389578,124.43056 184.441671,125.673604 183.625,127.1875 C182.808329,128.701396 182.166669,130.374991 181.7,132.208333 C181.233331,134.041676 181,135.805547 181,137.5 C181,138.666673 181.116666,139.763884 181.35,140.791667 C181.583335,141.81945 181.947914,142.715274 182.44375,143.479167 C182.939586,144.243059 183.595829,144.854164 184.4125,145.3125 C185.229171,145.770836 186.206244,146 187.34375,146 Z M252,140.5 C252,141.194448 252.045016,141.868052 252.135048,142.520833 C252.225081,143.173614 252.385851,143.756942 252.617363,144.270833 C252.848876,144.784725 253.157554,145.201387 253.543408,145.520833 C253.929262,145.840279 254.418003,146 255.009646,146 C255.96142,146 256.823147,145.55556 257.594855,144.666667 C258.366563,143.777773 259.035367,142.70834 259.601286,141.458333 C260.167205,140.208327 260.623792,138.916673 260.971061,137.583333 C261.31833,136.249993 261.543408,135.138893 261.646302,134.25 L264,122 C262.945332,122 261.916404,122.284719 260.913183,122.854167 C259.909963,123.423614 258.964635,124.19444 258.07717,125.166667 C257.189706,126.138894 256.372994,127.249994 255.62701,128.5 C254.881025,129.750006 254.237945,131.062493 253.697749,132.4375 C253.157554,133.812507 252.739551,135.194437 252.44373,136.583333 C252.147908,137.972229 252,139.277772 252,140.5 Z" fill="#FFFFFF"></path>
                </g>
            </g>
        </g>
    </g>
</svg>