<?xml version="1.0" encoding="UTF-8"?>
<svg width="385px" height="280px" viewBox="0 0 385 280" version="1.1" xmlns="http://www.w3.org/2000/svg" xmlns:xlink="http://www.w3.org/1999/xlink">
    <!-- Generator: Sketch 55.2 (78181) - https://sketchapp.com -->
    <title>wwgfbt</title>
    <desc>Created with Sketch.</desc>
    <g id="Page-1" stroke="none" stroke-width="1" fill="none" fill-rule="evenodd">
        <g id="My-work" transform="translate(-844.000000, -1178.000000)" fill-rule="nonzero">
            <g id="Group-6-Copy" transform="translate(246.000000, 1178.000000)">
                <g id="wwgfbt" transform="translate(598.000000, 0.000000)">
                    <g id="Group-10" fill="#EEE0D0">
                        <path d="M384.392694,191 C384.392694,277.420147 86.9012361,294.761912 42.7795268,267.249494 C15.6902695,250.357788 -15.2915567,136.967007 10.8934175,61.7551422 C20.038601,35.487165 196.143847,-22.1676369 302.535541,10.6865665 C387.678574,36.979094 384.392694,71 384.392694,191 Z" id="Rectangle" transform="translate(192.696347, 140.057675) scale(-1, 1) translate(-192.696347, -140.057675) "></path>
                    </g>
                    <g id="Group-11" transform="translate(138.000000, 53.000000)">
                        <g id="Group">
                            <path d="M9.9438801,48.7456231 C9.91810302,48.7456231 9.89236454,48.7476165 9.86689485,48.7515854 C9.59404535,48.7941031 9.4073246,49.0497588 9.44984238,49.3226083 L29.4339896,177.56694 C29.4658239,177.77123 29.6201144,177.934856 29.8221838,177.978624 C43.7469833,180.994645 53.9231368,182.5 60.2988133,182.5 C66.6591803,182.5 76.4508672,181.000965 89.626665,177.996608 C89.8279721,177.950705 89.9803591,177.785787 90.0102423,177.581483 L108.771711,49.3179894 C108.775216,49.2940267 108.776976,49.2698409 108.776976,49.2456231 C108.776976,48.9694807 108.553118,48.7456231 108.276976,48.7456231 L9.9438801,48.7456231 Z" id="Combined-Shape" stroke="#222222" stroke-width="3" fill="#FFFFFF"></path>
                            <path d="M55.2861136,-0.171547589 L64.6061828,-0.175202321 C65.7107516,-0.177040222 66.6065332,0.718039079 66.6069663,1.82260849 C66.6069665,1.82307691 66.6069665,1.82354533 66.6055616,1.82401331 L66.5561396,160.99787 C66.5559389,161.596989 66.2871739,162.16447 65.8237651,162.544203 C63.6504688,164.325074 62.0282664,165.762572 60.9571579,166.856699 C60.165757,167.665106 58.7589535,169.222005 56.7367475,171.527395 C56.0083643,172.357773 54.7447397,172.44046 53.9143596,171.71208 C53.4812755,171.332194 53.2330336,170.784009 53.2332125,170.207923 L53.2854928,1.82923659 C53.2872414,0.725216323 54.1820935,-0.169708913 55.2861136,-0.171547589 Z" id="Rectangle" stroke="#222222" stroke-width="3" fill-opacity="0.23828125" fill="#000000" stroke-linecap="round" stroke-linejoin="round" transform="translate(59.920033, 86.032412) rotate(11.000000) translate(-59.920033, -86.032412) "></path>
                            <ellipse id="Oval-Copy-14" fill="#222222" cx="58.3246269" cy="96" rx="5.87686567" ry="5.86666667"></ellipse>
                            <path d="M58.5,37.289704 C90.8086579,37.289704 117,36.5352005 117,32.4311111 C117,28.3270218 90.8086579,25 58.5,25 C26.1913421,25 0,28.3270218 0,32.4311111 C0,36.5352005 26.1913421,37.289704 58.5,37.289704 Z" id="Oval" stroke="#222222" stroke-width="6" fill="#222222" stroke-linecap="round" stroke-linejoin="round"></path>
                            <path d="M9.49811496,34.5913548 C22.4954836,30.8637849 39.4354038,29 60.3178755,29 C81.1326406,29 97.3035388,30.8517187 108.83057,34.5551562 C109.75258,34.8513916 110.329888,35.7656487 110.201003,36.7254649 L91.379594,176.890393 C91.2703975,177.703473 90.6757481,178.367421 89.8795681,178.56521 C76.6471449,181.852427 66.7932474,183.496036 60.3178755,183.496036 C53.8327574,183.496036 43.6036123,181.847476 29.6304401,178.550355 C28.8297302,178.361425 28.2264011,177.70144 28.109898,176.887034 L8.06963389,36.7970835 C7.92817513,35.8082837 8.53795467,34.8667232 9.49811496,34.5913548 Z" id="Combined-Shape" stroke="#222222" stroke-width="6"></path>
                        </g>
                        <g id="Group-2" transform="translate(26.000000, 154.000000)" fill="#222222">
                            <ellipse id="Oval" cx="12.1785714" cy="13.8157895" rx="5.89285714" ry="5.92105263"></ellipse>
                            <ellipse id="Oval-Copy" cx="29.4642857" cy="13.8157895" rx="5.89285714" ry="5.92105263"></ellipse>
                            <ellipse id="Oval-Copy-14" cx="20.0357143" cy="5.92105263" rx="5.89285714" ry="5.92105263"></ellipse>
                            <ellipse id="Oval-Copy-15" cx="35.75" cy="8.28947368" rx="5.89285714" ry="5.92105263"></ellipse>
                            <ellipse id="Oval-Copy-8" cx="41.25" cy="13.8157895" rx="5.89285714" ry="5.92105263"></ellipse>
                            <ellipse id="Oval-Copy-12" cx="58.5357143" cy="8.28947368" rx="5.89285714" ry="5.92105263"></ellipse>
                            <ellipse id="Oval-Copy-13" cx="49.8928571" cy="10.6578947" rx="5.89285714" ry="5.92105263"></ellipse>
                            <ellipse id="Oval-Copy-9" cx="54.6071429" cy="20.1315789" rx="5.89285714" ry="5.92105263"></ellipse>
                            <ellipse id="Oval-Copy-2" cx="5.89285714" cy="9.07894737" rx="5.89285714" ry="5.92105263"></ellipse>
                            <ellipse id="Oval-Copy-10" cx="20.0357143" cy="17.7631579" rx="5.89285714" ry="5.92105263"></ellipse>
                            <ellipse id="Oval-Copy-11" cx="38.1071429" cy="17.7631579" rx="5.89285714" ry="5.92105263"></ellipse>
                            <ellipse id="Oval-Copy-3" cx="7.46428571" cy="20.9210526" rx="5.89285714" ry="5.92105263"></ellipse>
                            <ellipse id="Oval-Copy-4" cx="24.75" cy="22.5" rx="5.89285714" ry="5.92105263"></ellipse>
                            <ellipse id="Oval-Copy-5" cx="34.9642857" cy="24.0789474" rx="5.89285714" ry="5.92105263"></ellipse>
                            <ellipse id="Oval-Copy-6" cx="46.75" cy="22.5" rx="5.89285714" ry="5.92105263"></ellipse>
                            <ellipse id="Oval-Copy-7" cx="60.1071429" cy="16.1842105" rx="5.89285714" ry="5.92105263"></ellipse>
                        </g>
                    </g>
                </g>
            </g>
        </g>
    </g>
</svg>