<?xml version="1.0" encoding="UTF-8"?>
<svg width="381px" height="295px" viewBox="0 0 381 295" version="1.1" xmlns="http://www.w3.org/2000/svg" xmlns:xlink="http://www.w3.org/1999/xlink">
    <!-- Generator: Sketch 52.5 (67469) - http://www.bohemiancoding.com/sketch -->
    <title>wwgfbt</title>
    <desc>Created with Sketch.</desc>
    <g id="Page-1" stroke="none" stroke-width="1" fill="none" fill-rule="evenodd">
        <g id="My-work" transform="translate(-823.000000, -1162.000000)" fill-rule="nonzero">
            <g id="Group-6-Copy" transform="translate(246.000000, 1162.000000)">
                <g id="wwgfbt" transform="translate(577.000000, 0.000000)">
                    <g id="Group-10" fill="#EF7070">
                        <path d="M89.5693052,1.95291326 C155.133201,-17.6001646 386.15775,114.025794 379.911137,202.263953 C373.664524,290.502112 60.5439543,310.761912 16.422245,283.249494 C-27.6994642,255.737076 24.0054093,21.5059912 89.5693052,1.95291326 Z" id="Rectangle" transform="translate(190.017706, 147.344940) scale(-1, 1) translate(-190.017706, -147.344940) "></path>
                    </g>
                    <g id="Group-11" transform="translate(159.000000, 69.000000)">
                        <g id="Group">
                            <path d="M9.87947723,48.5740766 C9.86624426,48.5750707 9.85305612,48.5765911 9.83994411,48.5786343 C9.56708691,48.6211533 9.38036089,48.8768162 9.42287984,49.1496733 L29.4339896,177.56694 C29.4658239,177.77123 29.6201144,177.934856 29.8221838,177.978624 C43.7469833,180.994645 53.9231368,182.5 60.2988133,182.5 C66.6591803,182.5 76.4508672,181.000965 89.626665,177.996608 C89.8279729,177.950705 89.980362,177.785785 90.0102456,177.581484 L108.79681,49.1464 C108.798502,49.1348288 108.799789,49.1232017 108.800666,49.1115402 C108.82138,48.8361748 108.614946,48.5961559 108.339578,48.575442 C93.8647985,47.4865696 77.4545535,46.9418638 59.1102847,46.9418638 C40.7737021,46.9418638 24.3629575,47.4861132 9.87947723,48.5740766 Z" id="Combined-Shape" stroke="#222222" stroke-width="3" fill="#FFFFFF"></path>
                            <path d="M55.2861137,-0.171445104 L64.6061823,-0.175924599 C65.7107517,-0.176301139 66.6064874,0.718824063 66.6068639,1.8233935 C66.6068641,1.82382776 66.6068641,1.82426201 66.606864,1.82469627 L66.5561218,160.997874 C66.5559358,161.596992 66.2871713,162.164472 65.8237632,162.544204 C63.6504678,164.325075 62.028266,165.762573 60.9571579,166.856699 C60.165757,167.665106 58.7589535,169.222005 56.7367475,171.527395 L56.7367442,171.527392 C56.0083643,172.357773 54.7447397,172.44046 53.9143596,171.71208 C53.4812755,171.332194 53.2330336,170.784009 53.2332125,170.207923 L53.286796,1.82923699 C53.2871388,0.725176274 54.1820534,-0.169765542 55.2861141,-0.170141908 Z" id="Rectangle" stroke="#222222" stroke-width="3" fill-opacity="0.23828125" fill="#000000" stroke-linecap="round" stroke-linejoin="round" transform="translate(59.920033, 86.032412) rotate(11.000000) translate(-59.920033, -86.032412) "></path>
                            <ellipse id="Oval-Copy-14" fill="#222222" cx="58.3246269" cy="96" rx="5.87686567" ry="5.86666667"></ellipse>
                            <path d="M58.5,37.289704 C90.8086579,37.289704 117,36.5352005 117,32.4311111 C117,28.3270218 90.8086579,25 58.5,25 C26.1913421,25 0,28.3270218 0,32.4311111 C0,36.5352005 26.1913421,37.289704 58.5,37.289704 Z" id="Oval" stroke="#222222" stroke-width="6" fill="#222222" stroke-linecap="round" stroke-linejoin="round"></path>
                            <path d="M9.49811496,34.5913548 C22.4954836,30.8637849 39.4354038,29 60.3178755,29 C81.1326406,29 97.3035388,30.8517187 108.83057,34.5551562 L108.830567,34.5551646 C109.75258,34.8513916 110.329888,35.7656487 110.201003,36.7254649 L91.3795785,176.890391 C91.2703975,177.703473 90.6757481,178.367421 89.8795681,178.56521 C76.6471449,181.852427 66.7932474,183.496036 60.3178755,183.496036 C53.8327574,183.496036 43.6036123,181.847476 29.6304401,178.550355 L29.6304388,178.550361 C28.8297302,178.361425 28.2264011,177.70144 28.109898,176.887034 L8.0696259,36.7970846 C7.92817513,35.8082837 8.53795467,34.8667232 9.49811496,34.5913548 Z" id="Combined-Shape" stroke="#222222" stroke-width="6"></path>
                        </g>
                        <g id="Group-2" transform="translate(26.000000, 154.000000)" fill="#222222">
                            <ellipse id="Oval" cx="12.1785714" cy="13.8157895" rx="5.89285714" ry="5.92105263"></ellipse>
                            <ellipse id="Oval-Copy" cx="29.4642857" cy="13.8157895" rx="5.89285714" ry="5.92105263"></ellipse>
                            <ellipse id="Oval-Copy-14" cx="20.0357143" cy="5.92105263" rx="5.89285714" ry="5.92105263"></ellipse>
                            <ellipse id="Oval-Copy-15" cx="35.75" cy="8.28947368" rx="5.89285714" ry="5.92105263"></ellipse>
                            <ellipse id="Oval-Copy-8" cx="41.25" cy="13.8157895" rx="5.89285714" ry="5.92105263"></ellipse>
                            <ellipse id="Oval-Copy-12" cx="58.5357143" cy="8.28947368" rx="5.89285714" ry="5.92105263"></ellipse>
                            <ellipse id="Oval-Copy-13" cx="49.8928571" cy="10.6578947" rx="5.89285714" ry="5.92105263"></ellipse>
                            <ellipse id="Oval-Copy-9" cx="54.6071429" cy="20.1315789" rx="5.89285714" ry="5.92105263"></ellipse>
                            <ellipse id="Oval-Copy-2" cx="5.89285714" cy="9.07894737" rx="5.89285714" ry="5.92105263"></ellipse>
                            <ellipse id="Oval-Copy-10" cx="20.0357143" cy="17.7631579" rx="5.89285714" ry="5.92105263"></ellipse>
                            <ellipse id="Oval-Copy-11" cx="38.1071429" cy="17.7631579" rx="5.89285714" ry="5.92105263"></ellipse>
                            <ellipse id="Oval-Copy-3" cx="7.46428571" cy="20.9210526" rx="5.89285714" ry="5.92105263"></ellipse>
                            <ellipse id="Oval-Copy-4" cx="24.75" cy="22.5" rx="5.89285714" ry="5.92105263"></ellipse>
                            <ellipse id="Oval-Copy-5" cx="34.9642857" cy="24.0789474" rx="5.89285714" ry="5.92105263"></ellipse>
                            <ellipse id="Oval-Copy-6" cx="46.75" cy="22.5" rx="5.89285714" ry="5.92105263"></ellipse>
                            <ellipse id="Oval-Copy-7" cx="60.1071429" cy="16.1842105" rx="5.89285714" ry="5.92105263"></ellipse>
                        </g>
                    </g>
                </g>
            </g>
        </g>
    </g>
</svg>